<?xml version="1.0" encoding="UTF-8"?>
<svg version="1.1" xmlns="http://www.w3.org/2000/svg" width="1144" height="1144">
<path d="M0 0 C5.26346709 0.00574514 10.52688369 0.00237347 15.79034901 -0.00357246 C19.89381791 -0.00720023 23.99727498 -0.00603016 28.10074425 -0.00344467 C30.04179579 -0.00278406 31.98284846 -0.00357306 33.9238987 -0.00592422 C61.72259204 -0.03226937 61.72259204 -0.03226937 66.46655273 3.13037109 C66.82973356 6.22270088 67.00248943 9.13388631 67.05639648 12.23583984 C67.11646526 14.16895006 67.17669369 16.10205532 67.23706055 18.03515625 C67.26368774 19.05861145 67.29031494 20.08206665 67.31774902 21.13653564 C68.82512811 76.70168419 76.14989661 132.45525711 94.46655273 185.13037109 C94.78060059 186.05140625 95.09464844 186.97244141 95.41821289 187.92138672 C108.58933863 226.41845233 127.42584241 262.33345378 151.46655273 295.13037109 C152.09303711 295.98646973 152.09303711 295.98646973 152.73217773 296.85986328 C171.51976062 322.43354551 192.96441393 348.41425212 217.11499023 369.11474609 C218.88350127 370.6306127 220.63609184 372.16508397 222.38061523 373.70849609 C257.37776758 404.50430329 299.32542626 430.38911636 342.46655273 448.13037109 C343.4264209 448.52530762 344.38628906 448.92024414 345.37524414 449.32714844 C433.90817332 485.33269201 533.22142861 492.14618106 696.90405273 443.00537109 C698.23581543 442.43774048 698.23581543 442.43774048 699.59448242 441.85864258 C708.63823274 438.05498927 708.63823274 438.05498927 712.46655273 438.13037109 C718.2361045 441.94103767 720.2533053 446.1497777 722.73999023 452.47021484 C723.30754532 453.85248512 723.30754532 453.85248512 723.88656616 455.26268005 C724.68828234 457.22068873 725.48248391 459.1817889 726.26965332 461.14569092 C727.43688731 464.05639511 728.62425467 466.95795293 729.8190918 469.85742188 C731.8395209 474.76747295 733.84187287 479.68464557 735.83816528 484.60455322 C738.0022526 489.93681463 740.17340166 495.26619583 742.34545898 500.59521484 C742.77803513 501.65651611 743.21061127 502.71781738 743.65629578 503.8112793 C747.73650693 513.81103427 751.86907964 523.78856605 756.02905273 533.75537109 C756.34038147 534.50158722 756.65171021 535.24780334 756.97247314 536.01663208 C760.09383932 543.5397459 760.09383932 543.5397459 763.29476929 551.02894592 C765.44822049 555.96857903 766.16655123 558.79288257 765.46655273 564.13037109 C760.54552806 568.74875713 754.49179928 571.30438262 748.46655273 574.19287109 C747.87620239 574.47594116 747.28585205 574.75901123 746.6776123 575.05065918 C676.51672234 608.52109243 595.26877177 620.2541637 518.15405273 620.31787109 C517.06660767 620.31904938 515.9791626 620.32022766 514.85876465 620.32144165 C493.20627904 620.31878305 471.55280934 619.96261337 450.02905273 617.44287109 C449.2806311 617.35700745 448.53220947 617.2711438 447.7611084 617.18267822 C409.48018919 612.74980338 371.56266342 604.58015202 335.09545898 592.03320312 C332.57953175 591.16917091 330.0560469 590.33247276 327.52905273 589.50146484 C302.31150385 581.08965664 278.19799698 570.02293874 254.46655273 558.13037109 C253.37858398 557.58767578 252.29061523 557.04498047 251.16967773 556.48583984 C210.84076932 536.27220404 172.8606338 511.08723866 138.57202148 481.76318359 C135.62234924 479.24698893 132.61184856 476.8114414 129.59155273 474.38037109 C125.87700186 471.35927472 122.44664379 468.22789456 119.11889648 464.79052734 C117.42291679 463.08652884 115.66165577 461.51323026 113.84155273 459.94287109 C103.2875004 450.78926032 93.47681765 441.20418345 84.06518555 430.88183594 C82.60977891 429.28728994 81.14574179 427.70136151 79.67749023 426.11865234 C74.02207908 419.98174333 68.67075096 413.65308262 63.46655273 407.13037109 C62.85457031 406.36781006 62.85457031 406.36781006 62.23022461 405.58984375 C38.67426478 376.19883891 18.52046678 344.90307538 0.8190918 311.65917969 C-0.45204906 309.28255929 -1.74333029 306.91821957 -3.04125977 304.55615234 C-34.79606715 246.26903294 -54.36162547 180.64227943 -63.34594727 115.06787109 C-63.49500015 113.99591995 -63.49500015 113.99591995 -63.64706421 112.90231323 C-66.85179714 89.5407055 -67.87196584 66.19308273 -67.79418945 42.63696289 C-67.78258315 39.09144477 -67.78952999 35.54622262 -67.80133438 32.0007143 C-67.80857054 29.22364571 -67.80626061 26.44664737 -67.8010788 23.66957664 C-67.79912527 21.73367996 -67.80512195 19.79778038 -67.81134033 17.8618927 C-67.77944997 11.90876128 -67.61149669 6.7366678 -65.53344727 1.13037109 C-43.69706699 -0.09399457 -21.86330009 -0.02420496 0 0 Z M-24.53344727 73.13037109 C-24.96159889 108.04851464 -19.04242781 142.17444747 -11.53344727 176.13037109 C-11.28916992 177.23703125 -11.04489258 178.34369141 -10.79321289 179.48388672 C-10.16389891 182.28785015 -9.51302945 185.08518213 -8.84594727 187.88037109 C-8.66813721 188.65316406 -8.49032715 189.42595703 -8.30712891 190.22216797 C-7.11694794 194.9850627 -5.50795412 198.30516701 -2.53344727 202.13037109 C-1.87344727 202.46037109 -1.21344727 202.79037109 -0.53344727 203.13037109 C-0.91361344 194.15695443 -2.61711602 185.72606289 -4.74258423 177.04275513 C-10.83139773 151.99592623 -14.79766439 126.95650747 -16.45849609 101.23217773 C-17.14339014 91.09525408 -18.55013039 82.14780164 -23.53344727 73.13037109 C-23.86344727 73.13037109 -24.19344727 73.13037109 -24.53344727 73.13037109 Z M6.46655273 226.13037109 C10.2328264 263.25506863 35.25194713 310.61667834 62.46655273 336.13037109 C62.09874528 329.57989542 59.56199652 325.35124068 56.09155273 319.88037109 C54.9900878 318.09335254 53.88985519 316.30557392 52.79077148 314.51708984 C52.23309082 313.61651855 51.67541016 312.71594727 51.10083008 311.78808594 C37.0052091 288.86532975 24.2413802 265.0087961 15.21166992 239.59912109 C14.79820313 238.44412109 14.38473633 237.28912109 13.95874023 236.09912109 C13.41902588 234.52807617 13.41902588 234.52807617 12.8684082 232.92529297 C11.24304274 229.68475242 9.41823108 228.17890104 6.46655273 226.13037109 Z M69.46655273 346.13037109 C70.3978085 357.30544034 76.82955334 364.2881161 83.93139648 372.37304688 C85.45896338 374.12168341 86.96576709 375.88606286 88.46655273 377.65771484 C94.48578471 384.75930952 100.63637853 391.71402839 106.97875977 398.52929688 C108.58246785 400.25511204 110.17884491 401.98754811 111.77514648 403.72021484 C126.38844354 419.60745497 126.38844354 419.60745497 142.23217773 434.23974609 C144.11662067 435.83427473 145.97424237 437.45132996 147.82592773 439.08349609 C155.2718855 445.6306702 162.83074505 451.9146979 170.77124023 457.85595703 C172.5435365 459.18824195 174.30244101 460.5369213 176.06030273 461.88818359 C199.21520464 479.59803758 223.78752823 495.3474304 249.46655273 509.13037109 C250.31878418 509.59266113 251.17101562 510.05495117 252.04907227 510.53125 C291.34882281 531.79642667 354.00622308 564.81650882 400.77905273 564.19287109 C401.66206055 564.18384766 402.54506836 564.17482422 403.45483398 564.16552734 C404.11870117 564.15392578 404.78256836 564.14232422 405.46655273 564.13037109 C405.79655273 562.81037109 406.12655273 561.49037109 406.46655273 560.13037109 C402.18633545 556.0643521 398.27653408 555.01379991 392.68920898 553.79052734 C390.89729545 553.37098616 389.10555477 552.95070613 387.31396484 552.52978516 C386.37181122 552.31294067 385.42965759 552.09609619 384.45895386 551.87268066 C349.70410211 543.80869494 316.90861059 531.88126446 284.46655273 517.13037109 C283.28722168 516.59524902 282.10789062 516.06012695 280.89282227 515.50878906 C265.61665501 508.51341004 250.95348779 500.62985641 236.46655273 492.13037109 C235.58064453 491.61442383 234.69473633 491.09847656 233.78198242 490.56689453 C222.33550289 483.88730755 211.23138144 476.86182034 200.46655273 469.13037109 C199.71519043 468.59154297 198.96382812 468.05271484 198.18969727 467.49755859 C186.96824093 459.41534215 176.07301111 451.00340251 165.46655273 442.13037109 C164.87036133 441.63327637 164.27416992 441.13618164 163.65991211 440.62402344 C156.10972482 434.30792134 148.82509688 427.74897092 141.66088867 420.9987793 C138.54279118 418.0608878 135.41093343 415.16543004 132.15405273 412.38037109 C125.40647659 406.55691951 119.21098719 400.14321803 113.42749023 393.36865234 C111.42262554 391.08023109 109.34867018 388.86525771 107.26245117 386.65112305 C99.49196898 378.37872563 92.59358422 369.56101043 85.73217773 360.53271484 C85.28825684 359.95070313 84.84433594 359.36869141 84.38696289 358.76904297 C83.17168298 357.17310055 81.96339736 355.57183896 80.75561523 353.97021484 C78.45851069 351.12039402 76.23707424 348.52709208 73.46655273 346.13037109 C72.14655273 346.13037109 70.82655273 346.13037109 69.46655273 346.13037109 Z M655.53295898 557.08349609 C654.77796616 557.18498962 654.02297333 557.28648315 653.24510193 557.39105225 C651.64877958 557.6074672 650.05275906 557.82611896 648.45703125 558.046875 C646.06883207 558.37490719 643.67903256 558.68850475 641.28881836 559.00146484 C631.42014395 560.33427566 622.02027738 562.30394578 612.46655273 565.13037109 C611.39800049 565.44393555 610.32944824 565.7575 609.22851562 566.08056641 C606.96985757 566.74976816 604.71622177 567.43165036 602.46655273 568.13037109 C602.46655273 568.46037109 602.46655273 568.79037109 602.46655273 569.13037109 C625.47848769 569.97227115 648.10105567 565.56884472 669.46655273 557.13037109 C669.46655273 556.80037109 669.46655273 556.47037109 669.46655273 556.13037109 C664.74886212 556.01814369 660.19811145 556.44681366 655.53295898 557.08349609 Z M432.46655273 563.13037109 C431.80655273 564.45037109 431.14655273 565.77037109 430.46655273 567.13037109 C439.33879474 572.91661588 448.97389908 573.43826339 459.34155273 574.19287109 C460.81108398 574.30985352 460.81108398 574.30985352 462.31030273 574.42919922 C465.69439282 574.68836055 469.079524 574.91293553 472.46655273 575.13037109 C473.11645172 575.1752063 473.76635071 575.2200415 474.4359436 575.26623535 C490.52374596 576.35261447 506.62561612 576.28464184 522.74121094 576.26074219 C526.64271074 576.25501071 530.54414222 576.25836118 534.44563961 576.26431465 C537.50088501 576.26795749 540.55611463 576.26676532 543.61136055 576.26418686 C545.04918997 576.26352968 546.48702093 576.26430257 547.92484856 576.26666641 C556.82168496 576.27810713 565.60685356 575.95746578 574.46655273 575.13037109 C574.79655273 573.81037109 575.12655273 572.49037109 575.46655273 571.13037109 C570.72484588 568.70044974 566.32602608 568.83743792 561.12841797 568.84326172 C559.72710632 568.83301216 559.72710632 568.83301216 558.29748535 568.82255554 C556.26995175 568.80897986 554.24238403 568.79991867 552.21481133 568.79484558 C548.98692513 568.78652254 545.7593173 568.76597728 542.5315094 568.74230957 C535.65573235 568.6940993 528.77992647 568.66125472 521.90405273 568.63037109 C513.98109032 568.59448331 506.05826037 568.55202391 498.13542366 568.49443054 C494.98971253 568.47468334 491.84410848 568.46610288 488.698349 568.45812988 C472.56062701 568.37273853 456.63687772 567.228219 440.71655273 564.50537109 C439.90057617 564.37130859 439.08459961 564.23724609 438.24389648 564.09912109 C436.31718846 563.78178095 434.39170162 563.45703663 432.46655273 563.13037109 Z " fill="#FEFCFC" transform="translate(67.533447265625,520.86962890625)"/>
<path d="M0 0 C0.95543701 0.00757324 1.91087402 0.01514648 2.89526367 0.02294922 C24.81865607 0.51641915 55.80796752 7.25932192 72.328125 22.8046875 C75.59898531 24.95440387 77.46246581 24.71787272 81.24707031 24.09570312 C86.26341916 22.80867643 90.9405468 20.73008388 95.6875 18.6875 C114.97034953 10.69037124 133.8066256 5.87062483 154.8125 6.4375 C154.6040213 17.48687109 147.32873521 25.19729032 140.1015625 32.93359375 C136.4527856 36.92483264 133.13919923 41.17714949 129.8125 45.4375 C133.44180766 43.81295276 136.40606212 41.59162626 139.5625 39.1875 C140.09182129 38.78708496 140.62114258 38.38666992 141.16650391 37.97412109 C143.50890041 36.20113122 145.84100687 34.41543322 148.1640625 32.6171875 C149.16566406 31.84761719 149.16566406 31.84761719 150.1875 31.0625 C150.75210937 30.62164062 151.31671875 30.18078125 151.8984375 29.7265625 C157.20129992 26.15524699 161.57889706 24.91034356 167.9375 25 C168.7217334 25.00902344 169.5059668 25.01804687 170.31396484 25.02734375 C193.80804439 25.6968762 217.38691534 34.23864496 237.8125 45.4375 C238.78960938 45.93894531 239.76671875 46.44039063 240.7734375 46.95703125 C255.03650058 54.37464142 267.65007731 64.47691489 279.453125 75.30859375 C280.86950738 76.5866209 282.31089331 77.83876548 283.796875 79.03515625 C296.35382696 89.17930546 304.90393586 103.6087011 312.8125 117.4375 C313.15700195 118.03401367 313.50150391 118.63052734 313.85644531 119.24511719 C338.04283448 161.51616208 338.04283448 161.51616208 335.8125 170.4375 C314.89603311 189.56112687 275.46942363 189.66482002 249 189.625 C248.19057953 189.62406342 247.38115906 189.62312683 246.54721069 189.62216187 C223.41635431 189.56447326 201.44270901 187.35862335 178.8125 182.4375 C177.98266602 182.26460449 177.15283203 182.09170898 176.29785156 181.91357422 C166.00082792 179.75537076 157.57596517 176.27981012 148.8125 170.4375 C148.42964844 172.36722656 148.42964844 172.36722656 148.0390625 174.3359375 C146.89579387 179.45962301 145.16504085 184.20805925 143.1875 189.0625 C142.83341064 189.93422852 142.47932129 190.80595703 142.11450195 191.70410156 C124.58360415 234.03906575 92.76950004 263.10867016 51.8125 282.4375 C41.57264452 285.85078516 32.44029837 282.13859933 23.20703125 277.70703125 C14.73184763 273.44983608 7.18676743 268.42848345 -0.1875 262.4375 C-0.70521973 262.02129395 -1.22293945 261.60508789 -1.75634766 261.17626953 C-31.79389056 236.9253575 -53.88450378 204.88009602 -64.1875 167.4375 C-64.1875 166.4475 -64.1875 165.4575 -64.1875 164.4375 C-64.85910156 164.74042969 -65.53070313 165.04335938 -66.22265625 165.35546875 C-95.07846605 177.45629222 -127.7073315 177.66511382 -158.5 177.625 C-159.90857773 177.62359512 -159.90857773 177.62359512 -161.34561157 177.62216187 C-189.72117243 177.56100439 -223.45525123 177.33680278 -248.1875 161.4375 C-247.34753806 135.81866097 -215.68857625 104.35124729 -197.921875 87.171875 C-196.18895746 85.43895746 -194.63243182 83.63080941 -193.0625 81.75 C-184.58971617 71.9231183 -174.34268747 63.4486536 -164.1875 55.4375 C-163.25292969 54.67308594 -162.31835938 53.90867187 -161.35546875 53.12109375 C-129.31421004 27.49631303 -83.41190634 2.28434393 -41.1875 5.4375 C-34.92179281 6.30663971 -30.52982741 7.99230309 -26.66015625 13.1015625 C-25.17292049 15.46062613 -23.82141395 17.87541653 -22.4855957 20.32275391 C-15.91266581 32.34191875 -7.70457264 42.16882018 4.8125 48.4375 C7.00832 49.11726122 7.00832 49.11726122 8.8125 49.4375 C8.19503906 48.91542969 7.57757812 48.39335937 6.94140625 47.85546875 C-4.50019465 37.91155077 -13.35013181 26.94960458 -18.1875 12.4375 C-18.25490865 10.87631572 -18.27264456 9.3124748 -18.25 7.75 C-18.24097656 6.94175781 -18.23195313 6.13351562 -18.22265625 5.30078125 C-18.20525391 4.37845703 -18.20525391 4.37845703 -18.1875 3.4375 C-11.93622966 0.70030033 -6.79631965 -0.07660223 0 0 Z M239.8125 61.4375 C248.64007984 71.89740221 248.64007984 71.89740221 258.1875 81.6875 C263.65275514 87.07737231 268.16138294 93.35090972 272.8125 99.4375 C273.29912109 100.06865723 273.78574219 100.69981445 274.28710938 101.35009766 C280.15169259 108.9635972 285.69719752 116.69279268 290.9375 124.75 C295.64272231 131.97871504 300.72405683 138.32211682 306.8125 144.4375 C307.93516133 141.069516 307.76554523 140.63353998 306.4765625 137.515625 C306.15896973 136.74492676 305.84137695 135.97422852 305.51416016 135.18017578 C304.98121338 133.94630127 304.98121338 133.94630127 304.4375 132.6875 C304.07317871 131.83784668 303.70885742 130.98819336 303.33349609 130.11279297 C290.91769451 101.89025294 268.81387238 76.48210689 241.8125 61.4375 C241.1525 61.4375 240.4925 61.4375 239.8125 61.4375 Z M-69.1875 117.4375 C-70.47120988 118.82095038 -70.47120988 118.82095038 -71.7265625 120.65625 C-72.22019287 121.33751953 -72.71382324 122.01878906 -73.22241211 122.72070312 C-73.74714111 123.45224609 -74.27187012 124.18378906 -74.8125 124.9375 C-93.00821468 149.6049003 -118.03389829 155.63454285 -146.1875 164.4375 C-146.1875 165.0975 -146.1875 165.7575 -146.1875 166.4375 C-106.50487353 166.82920865 -106.50487353 166.82920865 -71.4375 151.125 C-66.07612056 144.72113012 -66.94011731 136.93133955 -67.0625 129 C-67.07152344 127.88689453 -67.08054687 126.77378906 -67.08984375 125.62695312 C-67.1132776 122.89690977 -67.146086 120.1673199 -67.1875 117.4375 C-67.8475 117.4375 -68.5075 117.4375 -69.1875 117.4375 Z M118.8125 118.4375 C118.72559906 119.09386444 118.63869812 119.75022888 118.54916382 120.42648315 C117.62240622 127.407154 116.67789677 134.38527533 115.72412109 141.36230469 C115.37277686 143.94863301 115.02560954 146.53553302 114.68310547 149.12304688 C111.49435108 173.17429701 107.18800577 196.4814512 98.61962891 219.23876953 C97.26046886 222.94130896 96.0356999 226.68823464 94.8125 230.4375 C105.63300715 226.74223048 111.59391188 215.96563186 116.8125 206.4375 C117.1410498 205.8408252 117.46959961 205.24415039 117.80810547 204.62939453 C126.23029314 189.10445416 133.98827614 172.5077637 134 154.6875 C134.01836914 153.24117187 134.01836914 153.24117187 134.03710938 151.765625 C134.06482617 138.1659195 128.97176857 128.40493933 119.8125 118.4375 C119.4825 118.4375 119.1525 118.4375 118.8125 118.4375 Z " fill="#FEFCFC" transform="translate(548.1875,349.5625)"/>
<path d="M0 0 C25.7449197 6.7264578 49.19612093 30.64997529 68.265625 48.30859375 C70.54355447 50.40056979 72.85065189 52.44080559 75.1953125 54.45703125 C78.61637066 57.41864978 81.77958406 60.58565918 84.953125 63.80859375 C86.84858324 65.67431931 88.79977985 67.4161238 90.8203125 69.14453125 C97.67078174 75.05289273 103.970962 81.51193848 109.84375 88.38671875 C112.16391469 91.01738875 114.55940776 93.56580011 116.96655273 96.11669922 C123.25730441 102.78607246 129.26768037 109.5636951 134.9453125 116.76953125 C135.78980779 117.82206156 136.63488743 118.87412323 137.48046875 119.92578125 C198.42080805 196.11507815 243.98085469 293.23956147 247.9453125 399.76953125 C247.96722656 400.64416016 247.98914062 401.51878906 248.01171875 402.41992188 C249.54566477 472.52125504 237.67684152 542.99511667 225.31317902 611.71903992 C224.93508552 613.82653653 224.55969503 615.93449963 224.18499756 618.04260254 C222.60624029 626.91701162 220.98550806 635.78240819 219.31549072 644.6401062 C218.78349022 647.46688306 218.26515806 650.29558692 217.75970459 653.12722778 C214.48589269 671.39185746 209.49059913 687.27195868 200.9453125 703.76953125 C200.28986305 705.09683229 199.63836573 706.42609898 198.99243164 707.75805664 C197.43754853 710.93313483 195.8336262 714.07433047 194.1953125 717.20703125 C193.6187793 718.31336914 193.04224609 719.41970703 192.44824219 720.55957031 C183.30535784 737.8862952 173.11891203 754.6765718 161.9453125 770.76953125 C161.49655762 771.42260254 161.04780273 772.07567383 160.58544922 772.74853516 C145.99756228 793.95319575 130.03070038 814.48049658 112.38330078 833.234375 C110.83977644 834.88219861 109.31174239 836.54350881 107.78515625 838.20703125 C101.18939902 845.3711565 94.44451189 852.37193818 87.5703125 859.26953125 C86.83353271 860.01090332 86.09675293 860.75227539 85.33764648 861.51611328 C80.70188958 866.13880583 75.91171628 870.50648036 70.9453125 874.76953125 C69.75399845 875.81502923 68.56386503 876.86187426 67.375 877.91015625 C59.1118833 885.15476901 50.69813835 892.12468129 41.9453125 898.76953125 C41.23922852 899.30690918 40.53314453 899.84428711 39.80566406 900.39794922 C15.00052188 919.19216093 -11.55042597 935.25131711 -39.0546875 949.76953125 C-39.68375 950.14899902 -40.3128125 950.5284668 -40.9609375 950.91943359 C-43.72270718 952.04075846 -46.10492442 951.90361139 -49.0546875 951.76953125 C-56.49559309 935.03982472 -63.80360949 918.25085403 -70.85009766 901.3508606 C-71.56650638 899.6379074 -72.28782068 897.92699715 -73.01416016 896.2182312 C-74.03902088 893.80339426 -75.04508562 891.38151403 -76.046875 888.95703125 C-76.35245331 888.24672256 -76.65803162 887.53641388 -76.97286987 886.80458069 C-78.96091182 881.91423285 -79.50192727 878.05444988 -79.0546875 872.76953125 C-73.3488053 865.03898118 -62.67322139 860.31320543 -54.4921875 855.58203125 C-45.03551741 850.04520392 -35.92392089 844.20283251 -27.0546875 837.76953125 C-26.38743652 837.28629395 -25.72018555 836.80305664 -25.03271484 836.30517578 C-16.74480604 830.26849796 -8.75701275 823.96783562 -0.9921875 817.2734375 C1.56488301 815.09380692 4.16489427 813.01410689 6.8203125 810.95703125 C21.98478682 798.90384649 36.56008083 784.65995751 48.9453125 769.76953125 C50.22302683 768.26336484 51.5008103 766.75725672 52.77954102 765.25195312 C54.2124122 763.56186192 55.63962017 761.86710466 57.06640625 760.171875 C58.89528931 758.0024201 60.74006868 755.84905283 62.60546875 753.7109375 C120.31662296 687.23596124 151.83276667 600.9612786 163.1953125 514.58203125 C163.35878174 513.34155029 163.52225098 512.10106934 163.69067383 510.82299805 C165.72460756 494.56563016 166.15136444 478.44346869 166.1328125 462.08203125 C166.13190613 460.59944824 166.13190613 460.59944824 166.13098145 459.08691406 C166.10369343 442.57566748 165.6722431 426.20423431 163.9453125 409.76953125 C163.82704102 408.63370605 163.70876953 407.49788086 163.58691406 406.32763672 C153.25527709 312.12045833 110.88669003 222.09895504 47.2109375 152.28125 C45.94504517 150.87785557 44.6861572 149.46775647 43.45483398 148.03393555 C38.70737325 142.51345643 33.66732657 137.34195669 28.5078125 132.20703125 C27.70021484 131.39556641 26.89261719 130.58410156 26.06054688 129.74804688 C21.18502736 124.88038476 16.18791585 120.2378598 10.9453125 115.76953125 C9.93594897 114.89221341 8.92681603 114.01463018 7.91796875 113.13671875 C-4.68263397 102.34586703 -17.98081057 92.48464598 -31.37158203 82.7019043 C-32.85529854 81.61613611 -34.33568138 80.52579602 -35.8125 79.43066406 C-37.38231069 78.26766407 -38.96126508 77.1169517 -40.546875 75.97558594 C-41.75730469 75.08081543 -41.75730469 75.08081543 -42.9921875 74.16796875 C-43.72308594 73.63606934 -44.45398438 73.10416992 -45.20703125 72.55615234 C-47.43283099 70.40387929 -48.28482861 68.76249504 -49.0546875 65.76953125 C-48.56396484 63.8059082 -48.56396484 63.8059082 -47.515625 61.9453125 C-47.12987305 61.25646973 -46.74412109 60.56762695 -46.34667969 59.85791016 C-44.24623432 56.46274583 -42.01904939 53.19172367 -39.6796875 49.95703125 C-39.15858398 49.22838867 -38.63748047 48.49974609 -38.10058594 47.74902344 C-36.42682491 45.41647325 -34.74265648 43.09181714 -33.0546875 40.76953125 C-32.50458008 40.01172363 -31.95447266 39.25391602 -31.38769531 38.47314453 C-27.94568609 33.74315117 -24.46540007 29.04322125 -20.96679688 24.35498047 C-18.8943664 21.55275387 -16.85759607 18.72630182 -14.8203125 15.8984375 C-13.39916462 13.95910237 -11.9773043 12.02028909 -10.5546875 10.08203125 C-9.89629883 9.15422852 -9.23791016 8.22642578 -8.55957031 7.27050781 C-3.89142633 0.98032096 -3.89142633 0.98032096 0 0 Z M-24.7421875 54.89453125 C-26.35268133 56.7834757 -26.35268133 56.7834757 -25.890625 59.65625 C-24.90590863 63.32362827 -24.00003925 64.22248362 -20.9921875 66.45703125 C-20.08597656 67.13765625 -19.17976562 67.81828125 -18.24609375 68.51953125 C-13.99148381 71.51910937 -9.68154263 74.43400005 -5.36962891 77.3503418 C2.44601344 82.69543862 9.69804161 88.68683342 16.9453125 94.76953125 C17.85337646 95.5289502 17.85337646 95.5289502 18.77978516 96.30371094 C25.23869614 101.71125376 31.64072384 107.18253805 37.9453125 112.76953125 C38.98945312 113.67445313 38.98945312 113.67445313 40.0546875 114.59765625 C45.78809691 119.63843902 51.22603156 124.94449568 56.6328125 130.33203125 C57.3455835 131.04020996 58.05835449 131.74838867 58.79272461 132.47802734 C63.38047748 137.07910277 67.72695578 141.82876878 71.9453125 146.76953125 C72.40172119 147.29893311 72.85812988 147.82833496 73.32836914 148.3737793 C76.57038835 152.14186432 79.76158067 155.95223678 82.9453125 159.76953125 C83.41066406 160.32463379 83.87601563 160.87973633 84.35546875 161.45166016 C98.36435114 178.24573469 110.59403747 196.39963604 121.52734375 215.32324219 C122.93124602 217.74526367 124.35812714 220.15246615 125.7890625 222.55859375 C166.64034426 291.85728541 188.11418121 370.36760826 189.9453125 450.76953125 C189.96722656 451.60693848 189.98914062 452.4443457 190.01171875 453.30712891 C192.23374062 549.79842868 163.6056074 651.53362051 97.41650391 742.90136719 C96.03360756 744.65741147 94.67724506 746.42983857 93.33203125 748.21484375 C87.1924397 756.35576538 80.64954599 764.09177072 73.9453125 771.76953125 C73.40076416 772.39875488 72.85621582 773.02797852 72.29516602 773.67626953 C68.05505171 778.55983925 63.69668961 783.31627984 59.2578125 788.01953125 C58.56300781 788.75606934 57.86820313 789.49260742 57.15234375 790.25146484 C48.75071338 799.12607303 40.30079989 807.88855002 30.9453125 815.76953125 C30.0275 816.56488281 29.1096875 817.36023438 28.1640625 818.1796875 C19.38086924 825.76124858 10.23998492 832.82869117 0.9453125 839.76953125 C0.22714355 840.30868164 -0.49102539 840.84783203 -1.23095703 841.40332031 C-17.00146402 853.19839705 -33.65263669 863.4816074 -50.83959961 873.08056641 C-55.31945477 875.61603484 -59.34178573 878.18000122 -63.0546875 881.76953125 C-63.31479093 884.96095377 -63.31479093 884.96095377 -62.0546875 887.76953125 C-59.38267309 890.02437823 -59.38267309 890.02437823 -57.13696289 889.5246582 C-30.64753533 879.91839728 -4.87885823 860.24554219 16.9453125 842.76953125 C17.86642822 842.03549072 17.86642822 842.03549072 18.80615234 841.28662109 C40.04333824 824.32750547 61.28004645 806.50551738 78.9453125 785.76953125 C79.86150073 784.70531709 80.77821121 783.64155242 81.6953125 782.578125 C84.29575635 779.55994086 86.88443344 776.53192692 89.46826172 773.49951172 C90.79026167 771.95113293 92.11928086 770.40875357 93.44921875 768.8671875 C113.38988469 745.44429653 130.02860421 719.22327373 144.62988281 692.20361328 C145.52851932 690.54076881 146.43172529 688.88038776 147.33886719 687.22216797 C184.38249793 619.31720504 203.22148723 541.9991589 203.1328125 464.76953125 C203.13187592 463.71295319 203.13093933 462.65637512 203.12997437 461.56777954 C203.02903995 408.80493694 195.8942927 357.83138921 178.9453125 307.76953125 C178.58856445 306.70234863 178.23181641 305.63516602 177.86425781 304.53564453 C172.58080893 288.85206731 166.21677691 273.75590869 159.30419922 258.72509766 C158.13222103 256.17605562 156.97515806 253.62107909 155.82421875 251.0625 C136.78309148 209.15153519 109.83188101 171.68960202 78.9453125 137.76953125 C77.40234994 136.06236828 75.86068456 134.354032 74.3203125 132.64453125 C73.64742187 131.89945312 72.97453125 131.154375 72.28125 130.38671875 C70.99138226 128.94154921 69.70683117 127.49136129 68.44604492 126.02075195 C63.70173615 120.50486549 58.66338001 115.33802894 53.5078125 110.20703125 C52.70021484 109.39556641 51.89261719 108.58410156 51.06054688 107.74804688 C46.18407767 102.8794366 41.17645639 98.25210043 35.9453125 93.76953125 C34.80044069 92.7596717 33.65716634 91.74799777 32.515625 90.734375 C5.63573384 65.18999124 5.63573384 65.18999124 -24.7421875 54.89453125 Z " fill="#FEFCFB" transform="translate(879.0546875,94.23046875)"/>
<path d="M0 0 C10.6396662 1.54188345 21.0621842 2.80679378 31.8125 3.0625 C32.80854248 3.10117187 32.80854248 3.10117187 33.82470703 3.140625 C48.38616078 3.68612549 62.85245586 2.31922011 77.34423828 1.04199219 C78.17784378 0.97128006 79.01144928 0.90056793 79.87031555 0.82771301 C81.44218404 0.694085 83.01353235 0.55412107 84.58415222 0.40653992 C89.19400276 0.01970996 93.25595401 0.24129475 97.8125 1.0625 C105.78806531 32.28559919 92.93122895 66.41178263 77.40234375 93.31640625 C70.12832795 105.48901254 61.34693207 116.58438694 51.8125 127.0625 C63.13087034 123.70890879 71.09873489 115.03232787 79.51171875 107.1328125 C81.62744547 105.14951299 83.76965327 103.20860546 85.95703125 101.3046875 C103.33229167 86.09406841 114.61619047 65.76794593 123.69140625 44.75390625 C123.9961084 44.06103516 124.30081055 43.36816406 124.61474609 42.65429688 C125.19090111 41.33355763 125.75077829 40.00555752 126.29150391 38.66992188 C127.56866421 35.7475114 128.27057798 34.29081373 131.26953125 33.02734375 C134.24727111 33.06851066 135.40018317 33.31154814 137.8125 35.0625 C139.47106915 37.03330411 140.99425629 38.98226264 142.5 41.0625 C146.34548572 46.22149673 150.37385524 51.07506601 154.74609375 55.8046875 C156.59142488 57.82094722 158.32521923 59.89135946 160.0625 62 C175.38573986 79.36864971 207.6683304 104.68182541 231.25 107.46875 C237.37519948 107.37933103 242.46724851 104.28256881 247.8125 101.5625 C248.9144873 101.01948242 250.01647461 100.47646484 251.15185547 99.91699219 C256.05008389 97.49544439 260.91715436 95.01889914 265.7578125 92.484375 C266.47582031 92.11248047 267.19382812 91.74058594 267.93359375 91.35742188 C269.22234267 90.68541342 270.50433606 90.00019861 271.77734375 89.29882812 C275.98559966 87.09020623 279.0976573 86.43659052 283.8125 87.0625 C286.74998943 88.26193932 289.4129288 89.79869516 292.125 91.4375 C292.83978516 91.85 293.55457031 92.2625 294.29101562 92.6875 C297.10049014 94.32922875 299.50137748 95.75137748 301.8125 98.0625 C303.94595268 106.83084813 304.16499001 115.83381998 304.125 124.8125 C304.12298584 126.05660645 304.12097168 127.30071289 304.11889648 128.58251953 C303.98860865 140.87638638 302.61309643 152.91512056 300.8125 165.0625 C300.61252129 166.46082903 300.41318904 167.85925085 300.21484375 169.2578125 C300.08207031 170.18335938 299.94929688 171.10890625 299.8125 172.0625 C304.09184534 165.36199375 307.48168834 158.67454322 310.3125 151.25 C310.69559326 150.25154053 311.07868652 149.25308105 311.47338867 148.22436523 C315.20142141 138.31710846 318.35008606 128.35760797 320.8125 118.0625 C321.01746094 117.22960449 321.22242188 116.39670898 321.43359375 115.53857422 C325.32651073 98.9777746 325.3452724 82.2653271 325.39770508 65.33984375 C325.49017616 49.79279811 326.26758462 35.00243724 333.8125 21.0625 C334.39773438 19.93457031 334.98296875 18.80664062 335.5859375 17.64453125 C341.31591716 6.75273447 341.31591716 6.75273447 343.8125 4.0625 C350.78779656 2.73546465 358.56686731 4.40846186 365.5078125 5.5234375 C367.53048865 5.83270879 369.55319482 6.14178376 371.57592773 6.45068359 C373.13523514 6.69319855 373.13523514 6.69319855 374.7260437 6.94061279 C395.29245442 10.12271631 415.58808394 12.88778047 436.421875 13.21484375 C437.93953635 13.24355475 439.45719586 13.27236351 440.97485352 13.30126953 C443.92668907 13.35642776 446.87559168 13.3752479 449.82788086 13.37060547 C460.96407082 13.45387101 460.96407082 13.45387101 464.53125 16.16796875 C467.01068439 19.31396341 468.95079161 22.44353625 470.625 26.0625 C471.12410889 27.10845337 471.12410889 27.10845337 471.63330078 28.17553711 C472.7121142 30.46281214 473.76321893 32.76154575 474.8125 35.0625 C475.16715332 35.82062988 475.52180664 36.57875977 475.88720703 37.35986328 C487.86388212 63.08573983 495.09294519 90.5886968 501.8125 118.0625 C499.16853516 88.67794767 493.66615071 60.00758923 484.48046875 31.94140625 C482.45410542 25.74775154 480.86364933 20.59902686 481.8125 14.0625 C484.50592339 11.36907661 486.03994327 11.07859493 489.8125 11 C495.3930592 12.97644805 498.18909985 18.28040903 500.68994141 23.41210938 C501.15279541 24.41467773 501.15279541 24.41467773 501.625 25.4375 C501.96192871 26.16517578 502.29885742 26.89285156 502.64599609 27.64257812 C514.3310022 53.71038034 520.07229189 81.89167883 523.8125 110.0625 C523.9170752 110.77003418 524.02165039 111.47756836 524.12939453 112.20654297 C525.09249388 119.38929999 525.0343732 126.63679222 525.05273438 133.87109375 C525.0623918 136.16183476 525.09347443 138.45165772 525.125 140.7421875 C525.20346551 151.80031089 525.08828242 165.83242131 519.47265625 175.67578125 C515.27170132 179.18481419 509.02862471 178.82902138 503.8125 179.0625 C502.67941406 179.11921875 501.54632812 179.1759375 500.37890625 179.234375 C476.56392885 179.78501032 454.0336888 173.57229375 432.8125 163.0625 C431.6884375 162.51980469 430.564375 161.97710938 429.40625 161.41796875 C411.21368424 152.16407701 394.88456095 138.75691254 380.8125 124.0625 C379.575 122.825 379.575 122.825 378.3125 121.5625 C377.075 120.325 377.075 120.325 375.8125 119.0625 C375.25304687 118.53785156 374.69359375 118.01320313 374.1171875 117.47265625 C368.1395015 111.74908241 363.16013557 105.378912 358.15429688 98.81445312 C356.91322255 97.1940111 355.65274043 95.588483 354.390625 93.984375 C348.75699683 86.71893729 344.18746568 79.12101989 339.8125 71.0625 C338.83691626 73.98925123 338.59207411 76.20828872 338.41796875 79.26953125 C335.40455784 127.22654929 321.57972317 171.89177045 288.29296875 207.3984375 C286.26173951 209.58000969 284.30448434 211.7919688 282.375 214.0625 C269.66812433 228.64962935 250.77868504 249.5548564 230.4609375 251.07421875 C207.18843248 250.97124306 182.36657966 227.01738107 167.08911133 211.7097168 C160.54666681 204.99311929 154.93212233 197.90799223 149.8125 190.0625 C149.41627441 189.45728516 149.02004883 188.85207031 148.61181641 188.22851562 C130.39078846 159.99304869 123.15690076 130.77443143 122.25 97.4375 C122.20670285 95.94139688 122.16308544 94.44530299 122.11914062 92.94921875 C122.01323818 89.32041139 121.9116582 85.69149865 121.8125 82.0625 C120.39029275 83.62872584 118.97012015 85.19679935 117.55078125 86.765625 C116.36415894 88.07515137 116.36415894 88.07515137 115.15356445 89.41113281 C113.02240519 91.82477236 110.99242804 94.28400526 109 96.8125 C97.55533623 111.27728337 85.49156247 124.77242913 70.8125 136.0625 C69.80058594 136.85269531 68.78867187 137.64289063 67.74609375 138.45703125 C38.11314177 160.9864686 -9.89873888 181.22509972 -47.55859375 181.7265625 C-51.32150067 180.77605109 -52.79461092 179.0771312 -55.1875 176.0625 C-56.4453125 172.92578125 -56.4453125 172.92578125 -57.3125 169.375 C-57.47081299 168.73143555 -57.62912598 168.08787109 -57.79223633 167.42480469 C-70.05181138 115.72111122 -64.5245665 55.03950789 -38.125 8.375 C-29.12341632 -5.9216329 -14.65057166 -2.24781212 0 0 Z " fill="#FEFCFC" transform="translate(358.1875,535.9375)"/>
<path d="M0 0 C1.20269531 -0.020625 2.40539062 -0.04125 3.64453125 -0.0625 C12.4567105 -0.10077222 22.21566734 0.05487708 29.125 6.25 C29.125 6.91 29.125 7.57 29.125 8.25 C20.32773889 10.70824176 11.60022993 12.82188349 2.625 14.5234375 C-0.52974387 15.17832853 -3.5448553 16.00120601 -6.625 16.9375 C-12.07647003 18.51145826 -17.23917878 18.54432722 -22.875 18.25 C-23.27138672 19.36375 -23.27138672 19.36375 -23.67578125 20.5 C-26.52196247 27.02674781 -32.52613754 32.99998707 -38.875 36.25 C-44.48702779 38.26780774 -49.44174552 38.49799727 -55.3125 38.375 C-56.13943359 38.36597656 -56.96636719 38.35695312 -57.81835938 38.34765625 C-59.83736708 38.32431512 -61.85622356 38.28845288 -63.875 38.25 C-62.885 39.7659375 -62.885 39.7659375 -61.875 41.3125 C-59.72982946 45.10794898 -59.24127148 47.85413708 -59.875 52.25 C-61.4921875 55.1015625 -61.4921875 55.1015625 -63.75 57.875 C-64.15275146 58.38369629 -64.55550293 58.89239258 -64.97045898 59.41650391 C-66.25750685 61.03987451 -67.56491809 62.64518596 -68.875 64.25 C-84.98153751 83.73512469 -84.98153751 83.73512469 -91.875 107.25 C-91.42511719 106.60675781 -90.97523438 105.96351563 -90.51171875 105.30078125 C-79.74071449 90.16957086 -67.31879482 74.99332546 -52.875 63.25 C-51.83423891 62.3624439 -50.79391513 61.47437489 -49.75390625 60.5859375 C-21.84671202 37.11747059 13.15916741 21.74932011 50.125 24.25 C86.49242086 28.17968202 141.59181582 42.86732964 167.125 70.25 C168.09939033 71.23391982 169.07760736 72.21409299 170.0625 73.1875 C171.41666667 74.54166667 172.77083333 75.89583333 174.125 77.25 C178.47949246 76.99255534 180.85419086 75.19213457 184.125 72.4375 C184.95 71.75042969 185.775 71.06335938 186.625 70.35546875 C188.32675254 68.92227403 190.0258739 67.48595056 191.72265625 66.046875 C194.92248911 63.65350408 197.15060384 63.31972625 201.125 63.25 C207.7501018 65.41329855 211.22180553 70.45864812 215 76 C217.13674969 82.17283244 217.25647617 88.20008749 214.44140625 94.14453125 C212.23740089 98.28772909 209.52779227 101.88993797 206.625 105.5625 C186.76624819 131.4258458 173.3712841 159.74142675 164.95092773 191.20263672 C163.22291783 197.44549831 161.69777001 202.54194093 157.125 207.25 C153.8125 207.6875 153.8125 207.6875 151.125 207.25 C149.9885243 194.72772151 153.31497302 184.04824844 157.125 172.25 C151.34800392 184.01581534 147.456594 195.56408195 145.03125 208.47265625 C143.96819469 211.73055421 142.82612708 213.16543454 140.125 215.25 C132.93510381 217.35188498 125.34415804 213.56057842 119.125 210.25 C110.4452847 204.5702847 110.4452847 204.5702847 107.125 201.25 C105.67206691 190.35300184 113.18085112 180.20533447 118.31860352 171.10083008 C125.17151705 158.90808342 130.45665802 146.76268158 134.125 133.25 C134.49625 131.90615234 134.49625 131.90615234 134.875 130.53515625 C139.26168817 111.25200619 136.39710136 91.0375485 126.125 74.25 C125.59712891 73.14591797 125.59712891 73.14591797 125.05859375 72.01953125 C123.81288468 69.6584174 122.55322803 69.29066916 120.125 68.25 C118.45833333 67.25 116.79166667 66.25 115.125 65.25 C111.84321477 63.34444729 108.86154327 62.82954549 105.125 62.25 C105.14820313 63.27996094 105.17140625 64.30992187 105.1953125 65.37109375 C105.60640391 91.43985253 100.78989315 113.38370681 82.55737305 132.91601562 C64.75666269 151.14687168 41.04656538 163.5452093 17.625 172.8125 C16.59036621 173.22290527 15.55573242 173.63331055 14.48974609 174.05615234 C-5.88116673 181.90468586 -26.77515459 188.23848884 -47.76300049 194.19525146 C-95.51475548 207.39684592 -95.51475548 207.39684592 -139.4765625 229.75390625 C-142.95165173 231.9215922 -145.552407 232.37061729 -149.5625 232.3125 C-150.37074219 232.30347656 -151.17898438 232.29445313 -152.01171875 232.28515625 C-152.93404297 232.26775391 -152.93404297 232.26775391 -153.875 232.25 C-155.13739047 226.31779112 -155.1335282 220.41264549 -155.1875 214.375 C-155.21650391 213.36308594 -155.24550781 212.35117187 -155.27539062 211.30859375 C-155.42986621 191.60701566 -150.11771232 171.72359484 -146.203125 152.52172852 C-145.49867323 149.05597256 -144.80772357 145.58769254 -144.1171875 142.11914062 C-135.02499998 97.01851719 -119.37131011 52.27471961 -79.79296875 25.13671875 C-55.25177176 9.55260475 -29.17092891 0.12426381 0 0 Z M51.125 48.25 C51.52332031 48.75789063 51.92164063 49.26578125 52.33203125 49.7890625 C56.72435168 55.49587299 60.04932743 60.11167654 60.69921875 67.4453125 C60.78131592 68.34523926 60.86341309 69.24516602 60.94799805 70.17236328 C61.00640869 70.8579834 61.06481934 71.54360352 61.125 72.25 C60.41593506 72.15912109 59.70687012 72.06824219 58.97631836 71.97460938 C39.60344618 68.84991313 39.60344618 68.84991313 20.125 69.25 C19.465 70.24 18.805 71.23 18.125 72.25 C18.5375 72.61649658 18.95 72.98299316 19.375 73.3605957 C37.98938025 90.00914366 48.84707255 107.31418604 53.125 132.25 C59.29022544 130.82725567 63.42189896 127.26826352 68.125 123.25 C68.73601562 122.73566406 69.34703125 122.22132813 69.9765625 121.69140625 C80.85458883 111.73229995 88.37019749 95.69922944 89.59765625 80.9765625 C89.79802335 72.10814029 88.37630302 65.82188266 82.125 59.25 C72.13899231 51.37641701 63.80946162 48.00128507 51.125 48.25 Z M10.125 111.25 C10.26713297 113.14611434 10.41386907 115.04188394 10.5625 116.9375 C10.64371094 117.99324219 10.72492188 119.04898438 10.80859375 120.13671875 C11.06451685 123.1651815 11.06451685 123.1651815 11.63671875 125.76953125 C13.70496505 136.27622246 11.38794519 144.66186755 7.125 154.25 C6.795 155.24 6.465 156.23 6.125 157.25 C16.42160056 158.16525338 25.07518874 153.21282316 33.125 147.25 C32.63881552 135.60588164 28.2767009 125.59171482 20.1015625 117.1640625 C15.69175733 113.12770879 15.69175733 113.12770879 10.125 111.25 Z M-91.875 165.25 C-93.04572186 169.54057109 -94.21089137 173.83263033 -95.375 178.125 C-95.70886719 179.34832031 -96.04273438 180.57164062 -96.38671875 181.83203125 C-96.86044922 183.58193359 -96.86044922 183.58193359 -97.34375 185.3671875 C-97.63701172 186.44597168 -97.93027344 187.52475586 -98.23242188 188.63623047 C-98.95457828 191.12509533 -98.95457828 191.12509533 -98.875 193.25 C-90.39853957 193.80281264 -82.53573769 191.57859015 -75.875 186.25 C-75.215 185.26 -74.555 184.27 -73.875 183.25 C-77.89911841 176.29582037 -81.95843352 169.65555213 -88.875 165.25 C-89.865 165.25 -90.855 165.25 -91.875 165.25 Z M158.125 168.25 C159.125 170.25 159.125 170.25 159.125 170.25 Z " fill="#FEFCFB" transform="translate(491.875,152.75)"/>
<path d="M0 0 C2.67300163 1.44881181 2.87914339 3.17959087 3.859375 6.0078125 C4.24795321 7.60387069 4.59470575 9.21060367 4.90234375 10.82421875 C10.08802999 36.91048515 19.08986429 59.49598458 34.859375 81.0078125 C36.19726291 82.90043442 37.53095947 84.79603001 38.859375 86.6953125 C39.41625 87.48292969 39.973125 88.27054688 40.546875 89.08203125 C44.6022126 95.03227362 43.42003575 102.7509806 42.24609375 109.5703125 C36.45853662 133.23045796 23.01812236 153.56994457 8.859375 173.0078125 C25.75397519 160.69900259 36.8331187 145.39773371 46.71264648 127.15283203 C49.30947663 122.41630669 51.63361155 118.43130334 55.859375 115.0078125 C59.671875 114.1953125 59.671875 114.1953125 62.859375 114.0078125 C64.29388045 135.52539426 46.81194773 153.17643587 33.85546875 168.35546875 C15.16079783 189.6042503 -9.39191931 214.49836433 -39.38671875 217.2109375 C-45.43373361 217.34028541 -49.3055482 216.48627586 -54.00390625 212.37890625 C-59.24549478 207.34087455 -63.70788007 201.75396334 -68.140625 196.0078125 C-69.14289332 194.73411065 -70.14552375 193.46069369 -71.1484375 192.1875 C-87.35603051 171.47239799 -100.97124742 148.82297963 -112.140625 125.0078125 C-112.67171875 123.87601563 -113.2028125 122.74421875 -113.75 121.578125 C-119.99229709 107.64557532 -126.20516476 91.77255886 -126.15478516 76.34423828 C-126.15274078 75.53254181 -126.15069641 74.72084534 -126.14859009 73.884552 C-126.14596161 73.26522797 -126.14333313 72.64590393 -126.140625 72.0078125 C-125.16005127 71.60578613 -124.17947754 71.20375977 -123.16918945 70.78955078 C-81.4158311 53.64574302 -43.61075264 34.94342618 -9.0703125 5.3828125 C-8.18601562 4.6403125 -7.30171875 3.8978125 -6.390625 3.1328125 C-5.65328125 2.49601563 -4.9159375 1.85921875 -4.15625 1.203125 C-2.140625 0.0078125 -2.140625 0.0078125 0 0 Z " fill="#FEFCFC" transform="translate(465.140625,651.9921875)"/>
<path d="M0 0 C4.14182257 0.50877059 6.0254538 1.54150807 8.875 4.5625 C9.79925781 5.52349609 9.79925781 5.52349609 10.7421875 6.50390625 C12.60826323 8.56692077 14.43407654 10.65435283 16.25390625 12.7578125 C26.22103068 24.17670492 37.06176616 34.74178125 49.27734375 43.72607422 C51.03561835 45.02634022 52.76846071 46.3557982 54.5 47.69140625 C63.03814361 54.20168278 72.00806267 59.76145084 81.2734375 65.17578125 C94.48546661 72.97093323 94.48546661 72.97093323 96 76 C98.11902176 113.00274964 96.12469518 156.11358475 80 190 C102.46834865 157.26202734 114.43301395 122.45052249 117 83 C116.34 82.67 115.68 82.34 115 82 C117.93756119 81.9730499 120.87487555 81.95318526 123.8125 81.9375 C124.64587891 81.92912109 125.47925781 81.92074219 126.33789062 81.91210938 C127.14033203 81.90888672 127.94277344 81.90566406 128.76953125 81.90234375 C129.50792236 81.89710693 130.24631348 81.89187012 131.00708008 81.88647461 C133 82 133 82 136 83 C138.12750575 108.90829221 125.00833491 137.19345377 114 160 C113.60022949 160.84046875 113.20045898 161.6809375 112.78857422 162.546875 C101.69423932 185.80137609 87.97492219 206.48366449 70 225 C68.97712891 226.15048828 68.97712891 226.15048828 67.93359375 227.32421875 C64.95189556 229.90835718 62.70667796 229.61443194 58.89453125 229.44140625 C37.11440916 226.12001111 17.20485609 208.36001726 1.83203125 193.65625 C-0.11918759 191.8261413 -2.03363208 190.13439403 -4.10546875 188.4609375 C-6.81103525 186.16065829 -8.92205082 183.89812426 -11.125 181.125 C-12.27935547 179.67287109 -12.27935547 179.67287109 -13.45703125 178.19140625 C-14.07118896 177.41434326 -14.07118896 177.41434326 -14.69775391 176.62158203 C-16.04694455 174.94154373 -17.43097614 173.29598262 -18.82421875 171.65234375 C-27.102135 161.7806279 -33.68126985 151.20696413 -40 140 C-40.7410498 138.70449219 -40.7410498 138.70449219 -41.49707031 137.3828125 C-42.93726854 134.85034513 -44.3487716 132.30420171 -45.75 129.75 C-46.18070801 128.98848633 -46.61141602 128.22697266 -47.05517578 127.44238281 C-49.78675179 122.32760571 -50.79689204 118.80345293 -50 113 C-48.84401282 110.25310681 -47.30858507 107.88905245 -45.625 105.4375 C-45.17455322 104.74914062 -44.72410645 104.06078125 -44.26000977 103.3515625 C-42.85932352 101.22070798 -41.4339265 99.10859905 -40 97 C-21.53406307 69.69684241 -9.14475812 42.93247123 -2.53710938 10.52636719 C-1.78551376 6.99113474 -0.90554888 3.49871159 0 0 Z M76 194 C77 196 77 196 77 196 Z " fill="#FEFCFC" transform="translate(705,640)"/>
<path d="M0 0 C3.54829946 1.48443632 5.14133989 4.01142365 7.19921875 7.11328125 C7.63218262 7.74177979 8.06514648 8.37027832 8.51123047 9.01782227 C11.94195958 14.05208485 15.14269599 19.22544724 18.31884766 24.42260742 C22.99344332 31.98914469 28.12823156 39.23632345 33.24267578 46.50952148 C33.91024902 47.45899658 34.57782227 48.40847168 35.265625 49.38671875 C35.86705322 50.2379834 36.46848145 51.08924805 37.08813477 51.96630859 C39.7382302 55.84669185 39.84304178 58.32102496 39.51171875 63.05078125 C38.51623128 65.74629891 37.51564018 68.09027056 36.19921875 70.61328125 C35.84674072 71.30220459 35.4942627 71.99112793 35.13110352 72.70092773 C29.62212054 83.04463872 22.04930158 92.06466908 13.51171875 100.05078125 C10.98625136 102.55547999 8.48401562 105.0792611 6.00390625 107.62890625 C-0.16550041 113.92722588 -6.53770088 119.60593589 -13.48828125 125.05078125 C6.09130909 122.25369692 21.37552256 108.07300134 35.73730469 95.58691406 C38.66435898 93.05292595 41.61827612 90.55095057 44.57421875 88.05078125 C45.09814209 87.60621582 45.62206543 87.16165039 46.16186523 86.70361328 C47.60719285 85.48051793 49.05930561 84.26545414 50.51171875 83.05078125 C51.38183594 82.28378906 52.25195312 81.51679687 53.1484375 80.7265625 C55.51171875 79.05078125 55.51171875 79.05078125 59.26171875 79.23828125 C62.51171875 80.05078125 62.51171875 80.05078125 63.51171875 81.05078125 C63.51171875 87.48144651 61.93711778 90.46738711 57.515625 95.05859375 C56.52369141 96.04472656 56.52369141 96.04472656 55.51171875 97.05078125 C54.92261719 97.68757812 54.33351563 98.324375 53.7265625 98.98046875 C32.39344522 121.53650358 1.95654403 135.02639995 -26.17745972 146.85528564 C-27.65790713 147.47786409 -29.13658379 148.10467286 -30.61331177 148.73602295 C-46.33756433 155.42579085 -57.16670996 156.1210972 -73.3125 149.88671875 C-75.27173514 149.07795704 -77.22610332 148.25731825 -79.17578125 147.42578125 C-80.21669922 146.98556641 -81.25761719 146.54535156 -82.33007812 146.09179688 C-108.65154056 134.78800185 -132.0897103 119.02418082 -153.48828125 100.05078125 C-154.41382813 99.24511719 -155.339375 98.43945312 -156.29296875 97.609375 C-162.18415704 92.1861783 -162.18415704 92.1861783 -163.42578125 87.55078125 C-160.99321937 78.4692169 -154.10050859 72.3525214 -147.48828125 66.05078125 C-132.78901185 51.51304228 -121.53802913 35.58200678 -110.75585938 18.01098633 C-110.33755859 17.36411865 -109.91925781 16.71725098 -109.48828125 16.05078125 C-108.793396 14.95515869 -108.793396 14.95515869 -108.08447266 13.83740234 C-106.48828125 12.05078125 -106.48828125 12.05078125 -104.57373047 11.46020508 C-97.64061958 11.4123093 -93.29497697 13.98118116 -87.61328125 17.73828125 C-85.85142456 18.84767636 -84.08712029 19.95319454 -82.3203125 21.0546875 C-81.4845166 21.57949707 -80.6487207 22.10430664 -79.78759766 22.64501953 C-70.0616359 28.59130194 -58.48988998 33.15633808 -47 30.46875 C-35.39887352 26.79198198 -26.24311063 18.82386645 -17.17041016 11.02416992 C-13.85045223 8.17784042 -10.4995409 5.41211806 -6.98828125 2.80078125 C-5.8590625 1.95773437 -5.8590625 1.95773437 -4.70703125 1.09765625 C-2.48828125 0.05078125 -2.48828125 0.05078125 0 0 Z " fill="#FEFCFC" transform="translate(643.48828125,766.94921875)"/>
<path d="M0 0 C4.71144293 0.0961519 7.12553079 0.69568265 10.5 4.0625 C11.68424737 5.35915937 12.85098541 6.67201926 14 8 C14.51949219 8.5775 15.03898438 9.155 15.57421875 9.75 C17.40908658 11.81144957 19.20283411 13.90558424 21 16 C22.29550781 17.47919922 22.29550781 17.47919922 23.6171875 18.98828125 C50.25469739 49.51823622 70.84890453 82.84791353 89 119 C89.44214844 119.87495117 89.88429688 120.74990234 90.33984375 121.65136719 C118.36747703 177.46038457 129.27800303 240.37755063 129.1875 302.375 C129.18559662 303.73712616 129.18559662 303.73712616 129.18365479 305.12677002 C128.96080499 389.54263976 104.45432869 470.06031908 27.42822266 579.26757812 C25.3873751 581.74310877 23.38572864 584.24998215 21.375 586.75 C10.94213388 599.44839726 -0.46965015 610.42782239 -13.28125 620.73828125 C-15.95641867 622.96374484 -18.47256804 625.29658057 -21 627.6875 C-28.79222669 634.83037446 -37.41099841 640.86163476 -46 647 C-46.89831543 647.64807617 -47.79663086 648.29615234 -48.72216797 648.96386719 C-62.13080266 658.61732888 -75.86530057 667.35638635 -90.26367188 675.45849609 C-92.75208251 676.86033628 -95.2290371 678.28012286 -97.703125 679.70703125 C-124.89014411 695.26657538 -156.3914109 711.39819634 -188.4375 711.0625 C-189.26443359 711.05798828 -190.09136719 711.05347656 -190.94335938 711.04882812 C-192.96227146 711.03715811 -194.98114574 711.01922718 -197 711 C-195.69320238 707.07960713 -193.53304935 705.81245577 -190 704 C-186.690952 702.72911849 -183.31855991 701.73961747 -179.9140625 700.7578125 C-178.9394809 700.4669577 -177.96489929 700.17610291 -176.96078491 699.87643433 C-173.85159999 698.9497192 -170.73871523 698.03636663 -167.625 697.125 C-148.47702267 691.48968712 -130.42056164 685.63946581 -112.71826172 676.35131836 C-110.50565088 675.19046475 -108.28678471 674.04239933 -106.06640625 672.89648438 C-98.77324591 669.11792545 -91.53527657 665.24302965 -84.359375 661.24609375 C-83.724552 660.89532272 -83.089729 660.5445517 -82.43566895 660.18315125 C-76.65016549 656.92791935 -71.30546054 653.12119383 -66.04296875 649.08203125 C-63.09868641 646.83459432 -60.14258284 644.60436934 -57.17578125 642.38671875 C-53.76169618 639.83461053 -50.3515407 637.27742915 -46.9453125 634.71484375 C-43.82120234 632.36539159 -40.69181973 630.02343999 -37.5546875 627.69140625 C-36.85722412 627.1718335 -36.15976074 626.65226074 -35.44116211 626.11694336 C-34.17524711 625.17433259 -32.9080032 624.23350155 -31.63891602 623.29516602 C-29.74431317 621.88199795 -27.86952768 620.44619164 -26 619 C-25.2167334 618.39841064 -24.4334668 617.79682129 -23.62646484 617.17700195 C-15.78121043 610.97035009 -8.76950558 604.04229775 -1.73730469 596.94311523 C0.25529758 594.93215361 2.25588933 592.92941305 4.2578125 590.92773438 C12.94255431 582.22016748 21.09382813 573.35774173 28.625 563.625 C29.22618652 562.84825928 29.82737305 562.07151855 30.44677734 561.27124023 C64.3297036 517.25713281 90.20342589 468.65051522 105 415 C105.27392578 414.00774414 105.54785156 413.01548828 105.83007812 411.99316406 C129.55013067 324.62906691 124.31290745 229.89186358 85.10644531 133.421875 C83.93020315 130.84722315 82.80247814 128.25462834 81.6796875 125.65625 C70.03973259 98.9793834 54.8609542 73.95548126 37 51 C36.08544821 49.8076668 35.17137553 48.61496595 34.2578125 47.421875 C25.05977357 35.48406552 15.19392959 24.10464791 4.78149414 13.21069336 C0.19191513 8.34458609 0.19191513 8.34458609 -1 5 C-0.625 2.25 -0.625 2.25 0 0 Z " fill="#FCF9F8" transform="translate(889,251)"/>
<path d="M0 0 C0.99 0 1.98 0 3 0 C3.62674095 9.12256267 3.62674095 9.12256267 1.125 12.625 C-1 14 -1 14 -3 14 C-3.27199219 14.89203125 -3.54398437 15.7840625 -3.82421875 16.703125 C-6.21733481 23.41339064 -10.60433707 29.14857617 -14.82421875 34.8359375 C-57.64911756 92.55791801 -82.7032745 162.86687098 -91 234 C-91.08613556 234.72921661 -91.17227112 235.45843323 -91.26101685 236.20974731 C-92.927861 250.67383116 -93.36299907 265.01060442 -93.3125 279.5625 C-93.31067719 280.65839447 -93.30885437 281.75428894 -93.30697632 282.88339233 C-93.25978206 299.77693891 -92.62867956 316.28475038 -90 333 C-89.82307617 334.17675293 -89.64615234 335.35350586 -89.46386719 336.56591797 C-85.57685128 362.07991441 -79.35748566 386.595673 -71 411 C-70.51587646 412.42070801 -70.51587646 412.42070801 -70.02197266 413.87011719 C-63.82884443 431.78628602 -55.87289361 448.89231495 -47.84619141 466.04052734 C-46.26191077 469.42870291 -44.70930112 472.83031874 -43.16796875 476.23828125 C-35.64040987 492.73018218 -26.2048651 507.75685541 -15 522 C-14.15141853 523.10345577 -13.30380325 524.20765506 -12.45703125 525.3125 C-3.0465642 537.5225767 7.12116808 549.0449854 17.578125 560.36328125 C20.19170306 563.20870898 22.73758613 566.10510491 25.2734375 569.01953125 C35.40405906 580.6399501 45.85244494 591.46987393 58 601 C59.33804688 602.09828125 59.33804688 602.09828125 60.703125 603.21875 C89.15617483 626.042052 122.88477289 643.32649337 155.23803711 659.90454102 C170.71739361 667.8864095 170.71739361 667.8864095 174 672 C174 673.32 174 674.64 174 676 C156.59745005 675.68924018 138.86936875 662.92312785 124 655 C123.01563965 654.47680176 122.0312793 653.95360352 121.01708984 653.41455078 C98.0295469 641.15894431 75.89245627 627.93036789 56 611 C54.93161488 610.10472201 53.86257239 609.2102281 52.79296875 608.31640625 C46.06750715 602.68156005 39.47880194 596.91804011 33 591 C31.54787109 589.68708984 31.54787109 589.68708984 30.06640625 588.34765625 C20.88079875 580.02154657 12.01660934 571.47417468 4 562 C3.19046875 561.05640625 2.3809375 560.1128125 1.546875 559.140625 C-0.84015949 556.35256176 -3.20077034 553.54327001 -5.55273438 550.72558594 C-6.47796672 549.62242429 -7.40847048 548.52364873 -8.34570312 547.43066406 C-68.92184177 476.72876439 -101.53062895 380.58404847 -100.984375 244.38671875 C-98.22549267 212.26026002 -92.41705636 180.84374021 -83 150 C-82.72575195 149.09878418 -82.45150391 148.19756836 -82.16894531 147.26904297 C-68.66468199 103.52136078 -45.62438685 48.37271419 -11.5 16.625 C-6.63338378 11.94556132 -3.01000395 6.02000791 0 0 Z " fill="#FCF9F9" transform="translate(267,274)"/>
<path d="M0 0 C0.52957159 7.33456649 -1.35257109 13.17254169 -3.75 20.0625 C-4.14687012 21.22483154 -4.54374023 22.38716309 -4.95263672 23.5847168 C-8.17336146 32.89074724 -11.60229956 42.11697988 -15.125 51.3125 C-15.36617554 51.94705109 -15.60735107 52.58160217 -15.85583496 53.23538208 C-23.92525159 74.38275958 -31.39042853 87.38935351 -52.01171875 97.47265625 C-57.63699604 99.98215921 -63.3620793 101.7738109 -69.3125 103.3125 C-70.29935791 103.57015137 -70.29935791 103.57015137 -71.30615234 103.83300781 C-75.610379 104.87507229 -79.58186373 105.15432041 -84 105 C-84.34285881 97.13441564 -83.09301025 89.49603929 -81.875 81.75 C-81.76395935 81.04024017 -81.6529187 80.33048035 -81.53851318 79.59921265 C-77.35185243 53.20377015 -69.85597292 30.12617963 -48 13 C-35.78269608 4.48630645 -15.40541151 -7.70270575 0 0 Z " fill="#FEFCFC" transform="translate(387,49)"/>
<path d="M0 0 C-0.51726964 5.22119045 -2.4220249 9.14949914 -5 13.625 C-5.64400757 14.75736084 -5.64400757 14.75736084 -6.30102539 15.91259766 C-7.85262608 18.61717381 -9.42535676 21.30877531 -11 24 C-11.64694824 25.11568359 -12.29389648 26.23136719 -12.96044922 27.38085938 C-14.73942126 30.44379655 -16.53835171 33.49437413 -18.34887695 36.53875732 C-19.06174793 37.74119752 -19.77025878 38.94623591 -20.47387695 40.15411377 C-25.74422153 49.17732455 -31.69537398 56.54329647 -39 64 C-39.79954102 64.83080078 -40.59908203 65.66160156 -41.42285156 66.51757812 C-51.54543897 76.78769737 -65.75563166 82.54885048 -79.1875 87.125 C-80.04770752 87.42035645 -80.90791504 87.71571289 -81.79418945 88.02001953 C-87.47839516 89.84052039 -93.52055823 91.59193137 -99.22729492 88.98095703 C-100.10478394 88.4953833 -100.10478394 88.4953833 -101 88 C-100.63656541 80.06077695 -98.71751605 73.14875002 -96.0625 65.6875 C-95.66426025 64.55755615 -95.26602051 63.4276123 -94.85571289 62.26342773 C-89.49104623 47.40172416 -83.47280207 32.06334597 -73 20 C-72.31550781 19.2059375 -71.63101562 18.411875 -70.92578125 17.59375 C-54.2460817 -0.37361038 -23.30758701 -6.65931057 0 0 Z " fill="#FEFCFC" transform="translate(476,25)"/>
<path d="M0 0 C29.64219468 80.83062747 29.64219468 80.83062747 15.8125 113.5625 C12.52164927 120.41326473 8.22273079 126.69810329 4 133 C-2.28559382 132.16409201 -5.12193783 128.78969619 -9 124 C-12.02016613 119.506884 -14.54344915 114.81483966 -17 110 C-17.44843262 109.12230957 -17.89686523 108.24461914 -18.35888672 107.34033203 C-25.19482052 93.8181228 -31.99203762 80.37142628 -33 65 C-33.07734375 63.83017578 -33.07734375 63.83017578 -33.15625 62.63671875 C-34.00322765 38.81547229 -23.45360327 20.09683706 -7.8828125 2.8984375 C-4.99542419 -0.01291254 -4.28713017 0 0 0 Z " fill="#FEFBFB" transform="translate(116,280)"/>
<path d="M0 0 C-0.43184241 10.14829665 -7.57812689 16.77896303 -13.97729492 24.06591797 C-18.47150543 29.24181536 -22.55660954 34.67358487 -26.625 40.1875 C-43.35702284 62.6557963 -59.25780536 71.78449825 -86.734375 76.17993164 C-94.30790909 77.28774466 -101.4614877 77.58705522 -109 76 C-110.61412584 58.24461579 -96.13427148 38.21544796 -85.6640625 25.06640625 C-72.39807977 9.5894264 -52.98737404 -0.32951446 -32.5546875 -1.91015625 C-21.42681582 -2.30150342 -10.96671104 -2.13612458 0 0 Z " fill="#FEFCFC" transform="translate(564,10)"/>
<path d="M0 0 C1.26154907 0.43227905 1.26154907 0.43227905 2.54858398 0.87329102 C8.26800106 2.92929062 13.02211027 5.20961027 17.375 9.5625 C17.5234375 11.875 17.5234375 11.875 16.375 14.5625 C13.78626494 16.59085386 10.90538923 18.03753273 8 19.5625 C1.04695724 23.39834411 -5.6538789 27.42149483 -12.1875 31.9375 C-12.96802734 32.47576416 -13.74855469 33.01402832 -14.55273438 33.56860352 C-18.53580499 36.34088315 -22.46820401 39.17184028 -26.36328125 42.06640625 C-44.75632079 55.71558315 -61.52704949 62.70812105 -84.84667969 59.60424805 C-92.47161553 58.42837908 -99.56091076 56.44437 -105.625 51.5625 C-105.625 40.66053497 -97.34485596 34.14371604 -90.125 26.875 C-86.06897366 22.85192128 -81.93942728 18.97120934 -77.55859375 15.30078125 C-75.51497142 13.51718039 -75.51497142 13.51718039 -73.41015625 11.16796875 C-53.36601469 -10.50049547 -25.71257738 -8.86307428 0 0 Z " fill="#FDFBFB" transform="translate(710.625,25.4375)"/>
<path d="M0 0 C0.05115413 7.43405177 0.08592219 14.86805733 0.10986328 22.30224609 C0.11985525 24.82570085 0.13345337 27.34914422 0.15087891 29.87255859 C0.36850186 62.22157112 -3.68657398 86.54065358 -27.17431641 110.3527832 C-37.72050505 120.94226106 -37.72050505 120.94226106 -41.1640625 121.09765625 C-41.97617188 121.08605469 -42.78828125 121.07445312 -43.625 121.0625 C-44.44226563 121.05347656 -45.25953125 121.04445313 -46.1015625 121.03515625 C-46.72804687 121.02355469 -47.35453125 121.01195312 -48 121 C-53.72808371 98.93869475 -53.72808371 98.93869475 -55 89 C-55.16628906 87.7625 -55.16628906 87.7625 -55.3359375 86.5 C-57.84537048 64.25421574 -55.99284282 44.56808118 -41.8125 26.4375 C-31.58488242 14.4541414 -16.68260091 -0.23397074 0 0 Z " fill="#FEFCFC" transform="translate(233,142)"/>
<path d="M0 0 C8.37252245 36.18817863 16.69247974 76.78132184 -3.609375 110.52734375 C-7.78637324 116.83071544 -12.88839009 122.44917027 -18 128 C-18.46688232 128.55405518 -18.93376465 129.10811035 -19.41479492 129.67895508 C-21 131 -21 131 -25 131 C-50.8028899 67.2003066 -50.8028899 67.2003066 -37 34 C-30.85544964 21.19388209 -15.46663908 -0.41521179 0 0 Z " fill="#FEFCFC" transform="translate(168,204)"/>
<path d="M0 0 C-0.24783064 9.66539493 -10.03535324 17.35211811 -16.42578125 23.76171875 C-17.21341354 24.55600784 -18.00104584 25.35029694 -18.81254578 26.1686554 C-20.4680343 27.83420008 -22.12617934 29.49710818 -23.78686523 31.1574707 C-26.30584041 33.68082882 -28.8083591 36.21977378 -31.31054688 38.75976562 C-32.93130938 40.386396 -34.55302308 42.01207929 -36.17578125 43.63671875 C-36.91153885 44.38684738 -37.64729645 45.13697601 -38.40534973 45.90983582 C-45.08469429 52.53189201 -52.44638388 57.6696413 -61.5625 60.3125 C-63.08037109 60.77076172 -63.08037109 60.77076172 -64.62890625 61.23828125 C-72.53313786 63.02428955 -80.42274379 63.182193 -88.5 63.1875 C-89.97146484 63.20586914 -89.97146484 63.20586914 -91.47265625 63.22460938 C-98.44734293 63.23854017 -105.20851834 62.84950325 -111.5625 59.75 C-113 58 -113 58 -113.3984375 55.4296875 C-112.83810044 50.60639394 -110.65747542 47.40878213 -108.0625 43.375 C-107.31250732 42.18293945 -107.31250732 42.18293945 -106.54736328 40.96679688 C-102.35448229 34.38084073 -97.92690653 28.06320209 -93 22 C-91.94232422 20.69482422 -91.94232422 20.69482422 -90.86328125 19.36328125 C-68.61333037 -6.72149061 -31.06766 -15.80635333 0 0 Z " fill="#FEFCFC" transform="translate(644,16)"/>
<path d="M0 0 C0.35338438 8.71457089 -0.70003856 16.92400034 -2.1875 25.5 C-2.29981964 26.15685791 -2.41213928 26.81371582 -2.52786255 27.49047852 C-7.6397221 57.25749738 -16.49607092 85.1470197 -42.1875 103.5 C-49.9626892 108.85614861 -55.45314036 112.2174233 -65 112 C-71.0014553 51.80189189 -71.0014553 51.80189189 -52.9296875 28.30859375 C-50.70473842 25.76967102 -48.40281929 23.37067455 -46 21 C-45.31164062 20.30132812 -44.62328125 19.60265625 -43.9140625 18.8828125 C-32.11900139 7.61392512 -16.35451687 -0.2405076 0 0 Z " fill="#FEFCFB" transform="translate(304,90)"/>
<path d="M0 0 C2.37747815 2.0569193 2.92348597 2.65568688 3.625 5.8125 C2.70116268 10.52407034 -0.20552725 12.26725921 -4 15 C-7.00271598 16.76326649 -10.10243025 18.26408517 -13.25 19.75 C-15.0256778 20.61134979 -16.80039382 21.47468468 -18.57421875 22.33984375 C-19.47317871 22.7766748 -20.37213867 23.21350586 -21.29833984 23.66357422 C-25.60015087 25.791544 -29.82873987 28.05302115 -34.0625 30.3125 C-56.24065631 42.05958656 -76.49016231 46.29266482 -101.0625 38.875 C-109.47249028 36.18628468 -117.23799468 32.15969168 -125 28 C-117.88927202 11.67033826 -89.92956462 -3.04657593 -74.09765625 -9.48828125 C-49.60337252 -18.86576379 -21.42470436 -14.8793962 0 0 Z " fill="#FEFCFC" transform="translate(797,61)"/>
<path d="M0 0 C7.3829609 3.11097916 10.25106141 12.2904766 13.5625 19.125 C16.7853657 25.7018478 20.15791357 32.15783511 23.73291016 38.55029297 C34.90657695 58.53164146 40.46914825 76.41574346 34.13037109 99.06201172 C28.05949501 119.69794187 28.05949501 119.69794187 22 125 C19.00455601 125.42515979 17.5712652 125.40522674 15.078125 123.63671875 C-2.37640099 105.02601689 -19.55317316 83.91833431 -20.5 57.3125 C-19.8412908 38.05623433 -15.04017983 15.91177298 -1.625 1.4375 C-1.08875 0.963125 -0.5525 0.48875 0 0 Z " fill="#FEFBFB" transform="translate(75,360)"/>
<path d="M0 0 C-0.45488511 5.13480476 -2.26211446 8.36277594 -5.3125 12.375 C-5.75110352 12.96788818 -6.18970703 13.56077637 -6.64160156 14.17163086 C-7.58728204 15.44684155 -8.53781414 16.71846585 -9.49267578 17.98681641 C-11.055851 20.07459465 -12.59016306 22.18145508 -14.12109375 24.29296875 C-15.16333301 25.71668015 -16.20628743 27.13986832 -17.25 28.5625 C-17.73251221 29.22878418 -18.21502441 29.89506836 -18.7121582 30.58154297 C-24.55319752 38.44213834 -30.71483615 42.87639529 -40.49609375 44.625 C-62.26152753 47.78131668 -81.23437906 44.65291682 -99.5 32 C-101.8164951 30.1802283 -102.92678589 29.13945545 -104.3125 26.5 C-103.8457982 22.76638558 -101.63180777 20.52223525 -99 18 C-96.54520513 16.5276829 -94.26977754 15.30065568 -91.6875 14.125 C-90.25358072 13.44339275 -88.81999612 12.76108103 -87.38671875 12.078125 C-86.29302979 11.56475586 -86.29302979 11.56475586 -85.17724609 11.04101562 C-83.08188926 10.03915405 -81.01757576 8.99325726 -78.95703125 7.921875 C-54.44599655 -4.80779618 -25.96259911 -14.47914181 0 0 Z " fill="#FEFCFB" transform="translate(858,86)"/>
<path d="M0 0 C7.35612484 3.70668547 12.37784511 12.71201101 16.97924805 19.33129883 C19.37336144 22.7653682 21.83938883 26.11375878 24.42578125 29.40625 C25.0094043 30.15124756 25.59302734 30.89624512 26.19433594 31.66381836 C27.33136014 33.10729373 28.47613593 34.54470901 29.62988281 35.97485352 C35.03869697 42.86520521 37.45171735 48.62301728 37.1953125 57.51171875 C37.15470703 59.3525 37.15470703 59.3525 37.11328125 61.23046875 C37.07847656 62.14828125 37.04367188 63.06609375 37.0078125 64.01171875 C22.86864704 66.90147519 8.56528538 66.67158286 -5.7421875 65.19921875 C-6.45592529 65.12928711 -7.16966309 65.05935547 -7.9050293 64.98730469 C-12.96992648 64.38799334 -17.27241905 62.94301413 -21.9921875 61.01171875 C-22.75833088 40.15559347 -17.40782042 18.02384857 -4 1.56640625 C-1.9921875 0.01171875 -1.9921875 0.01171875 0 0 Z " fill="#FEFCFB" transform="translate(50.9921875,443.98828125)"/>
</svg>
