<?xml version="1.0" encoding="UTF-8"?>
<svg id="Calque_1" data-name="Calque 1" xmlns="http://www.w3.org/2000/svg" viewBox="0 0 284.48 330.7">
  <defs>
    <style>
      .cls-1 {
        fill: #ad1f31;
        stroke-width: 0px;
      }
    </style>
  </defs>
  <path class="cls-1" d="m279.77,203.93c-8.13,7.71-17.83,12.28-28.75,14.42-.56.11-1.21.52-1.69-.61.48-.62,1.02-1.37,1.61-2.09,12.84-15.54,21.63-33.1,26.56-52.65,3.48-13.79,4.26-27.79,3.34-41.89-.62-9.59-2.55-18.98-5.42-28.18-9.31-29.83-27.11-53.3-52.83-70.89-.73-.5-1.65-.73-2.64-1.16-3.91,5.31-7.8,10.33-11.13,15.48.14.49.13.7.23.77,1.13.88,2.25,1.76,3.41,2.59,30.26,21.77,46.37,51.29,48.22,88.49.5,10.1-.73,20.14-3.24,29.93-6.31,24.69-19.52,44.96-39.43,60.89-1.97,1.58-4.03,2.42-6.53,2.56-4.3.22-8.6.63-12.9.93-.21.01-.45-.27-.77-.49.32-.37.64-.69.9-1.05.23-.32.41-.67.61-1-1.18-.32-2.07.44-3,.92-2.58,1.34-5.24,2.22-8.21,2.35-4.63.2-9.24.66-13.86,1.02-9.88.77-19.75,1.58-29.63,2.33-11.95.91-23.91,1.73-35.85,2.73-2.98.25-5.63-.21-8.28-1.6-24.24-12.62-41.64-31.49-51.86-56.86-5.13-12.75-7.57-26.05-7.51-39.8,0-2.37,0-4.74,0-7.22-1.24-.2-2.16-.47-3.09-.48-8.48-.04-16.95-.05-25.43,0-.9.01-1.8.43-2.91.71-.15,2.18-.47,4.25-.4,6.3.16,4.63.41,9.26.81,13.87,1.62,19.06,7.14,36.96,16.22,53.79,6.5,12.05,14.67,22.85,24.29,32.58.72.73,1.26,1.62,2.16,2.79-3.15.71-5.86.84-8.56.81-3.24-.03-6.33.65-9.44,1.45-3.92,1-7.5,2.78-10.98,4.72-9.25,5.16-14.85,13-16.19,23.57-1.48,11.73-2.68,23.5-4.04,35.25-1.16,10-2.39,19.99-3.56,29.99-.04.38.18.79.37,1.5.71-.54,1.21-.88,1.66-1.28,2.63-2.33,5.17-4.77,7.89-6.98,3.48-2.84,7.25-5.22,11.58-6.66,7.46-2.49,15.01-4.38,22.93-4.7,5.59-.23,11.16-.81,16.73-1.23,10.68-.81,21.35-1.65,32.03-2.43,7.17-.53,14.35-.96,21.52-1.48,11-.8,21.99-1.63,32.98-2.45,6.38-.47,12.75-.9,19.13-1.39,10.2-.78,20.39-1.61,30.59-2.38,11.95-.89,23.92-1.41,35.82-3.02,6.83-.92,13.57-2.05,20.04-4.58,6.7-2.62,12.4-6.62,17.1-12.01,2.98-3.42,5.15-7.31,5.72-11.93.62-5.08,1.31-10.14,1.95-15.22,2.15-16.8,4.3-33.61,6.42-50.41.07-.53-.14-1.1-.26-1.97-2.08.79-3.19,2.17-4.43,3.35Zm-254.89-31.95c-.36-.63-.87-1.22-1.06-1.9-2.07-7.67-3.74-15.4-4.18-23.37-.07-1.26-.35-2.51-.4-3.77-.04-.89.13-1.79.26-3.35,2.09,2.91,1.45,5.64,1.77,8.19.36,2.82.85,5.62,1.31,8.43.44,2.66.92,5.31,1.35,7.97.41,2.55,1.66,4.96.95,7.8Zm15.41,32.53c-3.99-4.68-6.7-10.08-9.34-15.49-1.86-3.8-3.7-7.65-4.72-11.92.75,0,1.16-.12,1.29.02.32.33.58.76.75,1.2,3.12,8.24,7.09,16.05,11.91,23.43.51.77,1.25,1.55.11,2.76Zm225.18-79.59c-2.1-38.35-20.48-67.79-52.13-89.59.47-.79.9-1.51,1.36-2.27.69.25,1.18.34,1.56.58,10.83,7.02,20.19,15.64,28.13,25.81,13.51,17.3,21.47,36.92,24.02,58.67.82,6.96.74,14,.34,21.05-.71,12.59-3.61,24.61-8.33,36.23-6.73,16.57-16.91,30.73-30.13,42.72-2.33,2.12-2.35,2.1-7.4,2.25,29.77-25.48,44.68-56.97,42.58-95.45ZM42.71,208.82c-.45-.62-.76-1.36-1.02-2.08-.08-.21.15-.64.36-.81.2-.16.66-.26.84-.14.51.35,1.03.76,1.39,1.25,6.62,9.09,14.5,16.96,23.22,24.01.23.18.34.52.97,1.53-1.3-.11-2.1-.02-2.77-.27-.72-.28-1.35-.84-1.96-1.35-7.91-6.52-15-13.84-21.03-22.14Zm238.51.58c-1.14,9.2-2.32,18.39-3.49,27.58-1.16,9.19-2.43,18.37-3.44,27.58-.83,7.58-4.21,13.55-10.14,18.32-6.53,5.26-13.95,8.36-22.11,9.77-5.03.87-10.12,1.41-15.19,2.11-13.15,1.82-26.4,2.34-39.62,3.34-18.48,1.4-36.95,2.85-55.43,4.22-15.93,1.18-31.87,2.24-47.8,3.4-14.81,1.08-29.63,2.12-44.43,3.42-4.59.4-9.17,1.36-13.66,2.48-5.3,1.33-10.24,3.61-14.65,6.93-2.41,1.81-4.88,3.52-8.07,5.81.09-1.47.09-2.09.17-2.7,1.23-10.15,2.48-20.29,3.72-30.44,1.1-9.04,2.25-18.07,3.25-27.12.65-5.91,2.58-11.21,6.77-15.5,4.2-4.3,9.28-7.26,14.9-9.36,4.85-1.81,9.92-2.44,15.03-2.83,16.73-1.28,33.45-2.51,50.18-3.73,6.53-.48,13.08-.82,19.61-1.31,11.31-.84,22.62-1.77,33.93-2.62,10.04-.75,20.08-1.44,30.11-2.17,13.86-1.01,27.73-1.99,41.58-3.08,8.91-.7,17.84-1.37,26.72-2.39,11.22-1.29,21.26-5.54,29.87-12.96.48-.41.96-.81,1.43-1.2,1.35.53.87,1.6.76,2.45Z"/>
  <path class="cls-1" d="m185.25,88.36c-1.7-.41-3.44-.68-5.18-.91-1.67-.22-3.02.33-4.34,1.51-1.77,1.59-3.79,2.89-5.76,4.24-.43.29-1.11.67-1.35.3,1.39-1.64,2.73-3.21,4.05-4.79,1.42-1.69,2.92-3.35,3.75-5.91-6.77.24-12.66,2.45-18.59,5.06-6.82-4.77-14.22-7.06-22.48-5.79-.06.46-.21.81-.12,1.07,1.34,3.85,3.36,7.22,6.78,9.62.55.39.98.95,1.46,1.45-.56-.06-1.15-.06-1.64-.27-3.82-1.62-6.88-4.19-8.53-8.01-1.09-2.53-2.81-3.29-5.28-3.03-4.79.51-9.49,1.34-13.88,3.46-5.06,2.44-9.9,5.21-14.25,8.79-7.85,6.47-14.53,13.92-19.5,22.85-.21.38-.19.9-.3,1.49,2.15,1.6,4.7,1.99,7.15,2.56,7.25,1.71,14.59,1.44,21.95,1.07,5.12-.26,10.12-.9,15-3.17,1.26,5.7,3.64,10.69,7.06,15.22,4.22,5.59,9.28,10.09,15.71,13,1.41.64,2.66.71,4.13.16,6.59-2.5,12.11-6.42,16.41-12.03,3.44-4.49,6.06-9.38,7.46-15.16.98.77,1.71,1.59,2.63,1.99,1.15.51,2.46.67,3.7,1,8.46,2.24,17.07,2.57,25.7,1.68,3.29-.34,6.51-1.53,9.71-2.48,1.01-.3,1.87-1.09,2.99-1.78-1.49-3.23-2.8-6.32-4.29-9.31-6.32-12.64-16.42-20.57-30.15-23.88Zm-61.98,20.84c0,1.74-.05,3.48,0,5.22.09,2.43-1.18,3.9-3.31,4.67-1.48.54-3.04.89-4.59,1.21-3.12.64-9.41.93-12.61.68,2.37-.91,3.85-1.25,4.44-1.45,1.8-.62,3.63-1.13,5.46-1.66,3.84-1.1,6.78-3.31,8.65-6.88.35-.68,1.56-2.23,1.97-2.88.25.05-.26,1.04-.02,1.09Zm48.39,10.85c-1.66,6.1-4.25,11.65-8.62,16.28-.38.4-.89.69-1.55.88,2.01-4.36,3.65-8.78,4.39-13.46.71-4.52,1.19-9.08,1.89-14.55,3.59,3.49,5.04,6.62,3.89,10.85Zm37.55-8.82c-1.54-2.02-2.91-4.17-4.48-6.17-1.47-1.87-3.04-3.67-4.69-5.38-1.57-1.63-3.3-3.12-4.72-4.89,9.55,4.25,14.83,12.14,18.89,22.35-2.72-1.91-3.64-4.11-5-5.91Z"/>
  <path class="cls-1" d="m117.25,129.3c.06-1.01-.3-2.04-.46-2.98-.68-.05-1-.13-1.31-.09-7.97,1.09-15.92,1.2-23.89-.11-1.7-.28-3.45-.81-5.16-.09-7.88,11.48-9.11,31.57-5.28,42.46,1.35.73,2.77.46,4.17.15,1.25-.28,2.49-.6,3.72-.95,1.38-.39,2.76-.8,4.12-1.25,1.37-.45,2.72-.94,4.07-1.45,1.34-.51,2.68-1.06,4-1.62,1.17-.5,2.37-.97,3.48-1.58,1.26-.68,2.48-1.46,3.67-2.27s2.34-1.68,3.44-2.6,2.15-1.92,3.17-2.93c.91-.9,1.77-1.85,2.61-2.81.94-1.09,1.82-2.23,2.76-3.32.87-1.02,1.4-2.4,3.17-3.4,0,2.09,0,3.63,0,5.17.03,4.34.46,8.64,2.15,12.67,1.11,2.65,2.43,5.23,3.9,7.7,4.05,6.79,9.73,11.79,16.96,15.01,2.06.92,3.94.83,5.86-.51,5.57-3.88,10.18-8.72,14.29-14.06.77-1,1.33-2.18,1.92-3.31,3.65-6.91,5.44-14.3,5.84-22.07.04-.7.41-1.47-.1-4.91.36.41,1.84,3.61,2.15,4.11,2.9,4.66,6.6,8.65,10.52,12.42,7.97,7.62,17.25,12.11,28.53,11.5.76-.04,1.51-.23,2.37-.38.86-2.96,1.25-5.77,1.26-8.65.03-8.9-1.64-17.47-5-25.71-.54-1.32-1.14-2.67-1.96-3.82-.76-1.07-1.82-1.18-2.79.25,2.98,8.95,5.37,18.13,5.51,27.76-.55-.8-.91-1.65-1.11-2.54-1.59-7.03-3.46-13.97-6.57-20.51-.81-1.71-1.45-3.55-3.19-4.93-9.19.28-18.33-1.13-27.28-2.75-3.14,4.55-5.37,9.02-4.38,14.48.23,1.24.06,2.55.02,3.83-.28,7.64-2.27,14.82-5.81,21.58-.29.55-.85.96-1.98,2.2,1.75-7.14,2.16-13.28,1.02-19.66-1.54-.86-3.05-1.69-4.43-2.46-3.45,1.67-6.61,3.18-9.77,4.71-1.55.75-3.08.76-4.6-.03-7.72-4.05-14.79-8.92-19.92-16.17-.42-.6-.7-1.51-1.88-1.21-1.05,2.42-1.92,5.01-3.25,7.34-1.33,2.35-2.97,4.57-4.75,6.61-1.77,2.04-3.8,3.89-5.86,5.65-3.33,2.84-3.76,2.99-6.88,3.78,1.02-1.1,1.89-2.01,2.73-2.95,6.42-7.22,9.66-15.72,10.2-25.3Z"/>
  <path class="cls-1" d="m120.16,37.62c2.11.92,3.98-.12,5.9-.75,1.9-.62,4.02-.33,6.52-1.35-2.01-1.07-3.53-1.22-5.08-1.29-6.42-.28-12.4,1.42-17.89,4.55-4.77,2.71-8.82,6.39-11.6,11.2-2.24,3.88-4.15,7.96-5.07,12.38-1.3,6.25-2.56,12.52-3.63,18.82-.45,2.62-.58,5.35.06,8.36,1.07-.33,2.06-.4,2.76-.89,5.08-3.52,10.86-5.32,16.67-7.13,6.25-1.94,12.51-3.9,18.64-6.21,4.32-1.63,8.66-3.46,12.56-5.9,7.02-4.39,11.72-10.38,10.61-19.38-.07-.57-.25-1.28.85-1.8,3.38.66,5.59,3.02,6.76,6.32,1.25,3.54,1.28,7.22.43,10.88-.84,3.61-2.31,6.96-4.15,10.17-1.09,1.91-2.32,3.79-2.85,6.01,1.52,1.77,3.56,2.37,5.39,3.26,1.86.91,3.15.23,3.34-1.83.36-4.02,1.98-7.48,4.29-10.68-.05.67-.05,1.35-.23,1.98-.7,2.45-1.52,4.87-2.2,7.33-.13.47.16,1.06.31,1.9,1.79-1,1.94-2.46,2.28-3.81,1.61-6.41,4.13-12.42,7.96-17.84,1.2-1.7,2.39-3.41,3.69-5.02,1.31-1.62,1.26-3.21.19-4.85-.78-1.19-1.58-2.4-3.35-2.68-1.68,1.31-3.39,2.65-5.28,4.13-.86-.91-1.45-1.65-2.15-2.25-1.58-1.33-3.06-2.93-4.88-3.81-3.15-1.51-6.5-2.63-9.82-3.78-2.4-.83-4.92-1.32-7.32-2.15-6.53-2.26-12.85-1.71-19.13.97-8.82,3.77-15.49,10.02-20.91,17.76-.59.84-1.18,1.68-1.77,2.52,1.48-6.57,5.18-11.89,9.33-16.96-.64-1.13-1.19-2.08-1.92-3.36,1.93.09,3.65.17,5.59.26,1.72-1.45,4.6-1.91,5.1-5.08Zm11.21,12.62c1.57.05,3.14.23,4.71.4,1.38.14,2.75.33,4.15.5,1.12-2.95-1.51-3.95-2.78-5.92,3.3-.19,5.71.85,7.82,2.62,1.69,1.42,2.59,3.32,2.15,5.51-.4,2-.94,4.04-1.81,5.87-1.48,3.13-3.98,5.4-7.01,6.84-.4-2.02-.57-4.07-1.25-5.94-.64-1.75-1.6-3.49-2.82-4.89-1.33-1.52-3.12-2.63-5.08-4.22.9-.39,1.42-.79,1.92-.77Zm-2.44,15.61c-.35-1.97-.85-3.92-1.32-6.06,4.12,2.26,5.78,4.69,6.53,9.36-2.94,2.31-3.49,2.53-7.35,2.88.76-2.11,2.55-3.83,2.14-6.18Zm-25.17,7.37c2.46.82,3.61,2.8,4.76,5.04-1.84,1.91-4.24,1.74-6.76,2.57.78-2.95,1.37-5.21,2-7.61Z"/>
  <path class="cls-1" d="m193.15,204.72c8.31-8.11,14.31-21.67,16.36-32.92.17-.93.02.19,0-.77l-4.44-.47c.51.49.23,3.46.08,4.13-.6,2.64-1.12,5.31-1.84,7.92-1.18,4.33-3.07,8.38-5.39,12.22-.51.84-7.31,10.7-1.97.49.18-.25.43-.47.52-.74,2.85-8.1,3.63-16.47,3.16-24.99-.02-.3-.22-.59-.34-.9-2.58-1.55-5.27-2.97-7.73-4.7-2.6-1.83-5.09-3.85-7.43-6-2.2-2.02-4.15-4.33-6.8-7.13-.82,5.54-1.47,10.48-3.93,14.75-2.53,4.4-5.49,8.56-8.34,12.96,5.28,12.83,16.71,24.53,26.98,26.96.35-.25.78-.48,1.11-.81Z"/>
  <path class="cls-1" d="m204.77,170.53l.3.03c-.08-.07-.18-.1-.3-.03Z"/>
  <path class="cls-1" d="m147.75,217.76c1.44.5,2.8.4,4.18-.23,4.66-2.09,9.44-3.93,13.95-6.31,2.93-1.55,5.52-3.78,8.15-5.85,1.1-.87,1.98-2.07,2.8-3.23.54-.76.31-1.51-.73-1.73-2.95,2.45-5.76,5.04-8.83,7.29-4.51,3.3-6.56,4.11-10.15,4.68,5.45-5.27,11.47-9.87,14.45-16.87-3.17-4.76-6.17-9.27-9.37-14.09-2.43,1.9-4.65,3.46-6.67,5.24-3.76,3.31-7.71,3.41-11.91,1.03-.97-.55-1.94-1.11-2.9-1.67-1.08-.63-2.16-1.26-3.16-1.84-.44.3-.8.42-.94.67-3.11,5.85-7.4,10.77-12.02,15.44-.53.54-.9,1.24-1.32,1.84.39.56.61,1,.94,1.34,6.63,6.75,14.65,11.22,23.53,14.29Z"/>
  <path class="cls-1" d="m100.45,9.88c-2.72.86-5.47,1.65-8.08,2.78-3.18,1.38-5.35,3.95-6.88,7.01-2.38,4.78-2.57,10-3.13,15.46,7.08-1.59,12.48-4.69,15-11.52,1.64-4.46,3.24-8.93,4.92-13.59-.65-.05-1.3-.3-1.83-.14Z"/>
  <path class="cls-1" d="m37.67,97.33c4.23-6.38,5.77-12.76,3.19-19.83-1.42-3.89-2.73-7.83-4.26-12.22-.88.68-1.43,1-1.84,1.45-4.78,5.2-7.37,13.22-2.8,21.74,1.28,2.39,2.7,4.71,4.11,7.04.37.6.94,1.07,1.6,1.82Z"/>
  <path class="cls-1" d="m111.43,5.46c-2.11.76-3.9,2.14-5.31,3.93-3.61,4.56-5,10.03-6.73,15.8,3.72.07,6.62-1.19,9.48-2.49,2.64-1.2,5.05-2.82,6.63-5.29,2.62-4.12,5.06-8.36,7.88-13.05-4.62-.95-8.34-.21-11.95,1.1Z"/>
  <path class="cls-1" d="m64.23,32.59c-1.78.22-3.09,1.45-4.5,2.42-6.28,4.3-8.82,10.18-7.39,17.71.5,2.65.98,5.3,1.54,8.3,6.18-2.71,10.73-9.41,10.91-15.85.1-3.49.06-6.99.05-10.49,0-.7.49-1.59-.61-2.09Z"/>
  <path class="cls-1" d="m51.56,61.89c-.37-4.58-1.19-9.12-1.84-13.68-.04-.26-.31-.49-.47-.74-.31.04-.67-.01-.91.14-6.27,3.82-10.63,11.31-8.18,20.1.97,3.48,2.26,6.83,3.83,10.16,4.8-3.98,8.01-10.49,7.57-15.98Z"/>
  <path class="cls-1" d="m136.43.29c-9.98,1.84-15.11,8.54-18.07,17.74,1.94.83,3.68.53,5.37.24,1.88-.32,3.73-.82,5.59-1.28,2.57-.64,4.58-2.04,6.18-4.2,2.84-3.82,5.83-7.53,9.16-11.8-2.9-1.1-5.53-1.2-8.23-.7Z"/>
  <path class="cls-1" d="m161.29,8.23c-1.76,1.85-3.58,3.63-5.31,5.5-.6.65-1.03,1.47-1.67,2.4,6.04,2.94,11.51,3.1,16.9-.86,3.95-2.9,8.09-5.53,12.34-8.42-1.59-1.63-3.81-2.05-5.83-2.83-6.48-2.5-11.83-.63-16.43,4.21Z"/>
  <path class="cls-1" d="m178.52,13.06c-2.41,1.79-4.68,3.77-6.97,5.62.25.49.32.89.54,1.01,4.89,2.73,10.12,4.24,15.48,2.03,4.52-1.87,8.72-4.52,13.04-6.86.25-.13.37-.5.75-1.06-1.64-1.58-3.42-2.29-5.2-2.93-6.23-2.23-12.2-1.85-17.64,2.19Z"/>
  <path class="cls-1" d="m143.59,5.54c-2.89,2.86-4.84,6.27-6.77,9.86,1.19,1.39,2.74,1.03,4.09,1.19,5.98.69,11.05-1.03,14.91-5.81.3-.37.62-.74.96-1.08,1.8-1.82,3.61-3.61,5.4-5.44.53-.54.99-1.15,1.78-2.08-2.1-.53-3.76-1.09-5.46-1.37-5.75-.92-10.71.57-14.91,4.73Z"/>
  <path class="cls-1" d="m80.31,30.5c.45-2.66.97-5.3,1.42-7.96.12-.71.12-1.43.18-2.18-2.36-.29-4.02.79-5.74,1.51-5.28,2.22-8.15,6.35-9.19,11.88-.77,4.08-.58,8.12.22,12.07.32.12.5.27.61.23,6.89-2.99,11.23-8.03,12.5-15.55Z"/>
  <path class="cls-1" d="m33,113.15c3.24-6.56,4.01-13.01-.51-19.44-1.54-2.2-2.54-4.79-3.83-7.17-.34-.62-.85-1.14-1.45-1.93-2.79,4.15-3.98,8.39-4.37,12.92-.21,2.45.31,4.72,1.41,6.94,1.88,3.79,4.76,6.73,7.83,10.03.39-.58.71-.94.92-1.35Z"/>
  <path class="cls-1" d="m210.67,25.27c.79-1.54,2.05-2.83,3.01-4.29.4-.61.58-1.36.92-2.2-3.94-1.55-7.62-1.61-11.44-.66-4.72,1.18-8.38,4.38-12.97,6.22,1.21,1.93,2.69,2.99,4.5,3.66,2.88,1.07,5.84,1.38,8.9,1.2,3.04-.19,5.56-.97,7.08-3.93Z"/>
  <path class="cls-1" d="m70.21,192.9c.27.56,2.82,3.43,3.2,3.89,10.85,12.81,24.1,22.32,39.65,28.63.38.15.88.02,1.59.02-1.14-1.53-2.75-1.83-4.11-2.43-13.37-5.91-24.88-14.34-34.63-25.21-.94-1.04-4.41-5.62-5.45-6.56-.08-.13-.14-.23-.19-.31-.06-.08-.14-.19-.26-.35-16.9-23.5-22.85-49.57-18.03-78.04,2.12-12.55,6.76-24.25,13.53-35.07.36-.57,1.89-2.71,3.12-4.73.79-1.14,1.47-2.36,2.07-3.65l-.15-.13c-.09.07-.17.14-.26.21,0-.07,0-.15,0-.21-.57.09-1.47,1.11-2.38,2.38-.98,1.09-1.78,2.3-2.38,3.67-.49.82-.87,1.47-1.03,1.74-11.94,19.52-17.08,40.64-14.95,63.48,1.82,19.56,8.84,37.05,20.66,52.67Z"/>
  <path class="cls-1" d="m70.27,190.93c.39.52-.41-.67,0,0h0Z"/>
  <path class="cls-1" d="m131.85,187.64c.87-1.32,1.47-2.83,2.08-4.3.22-.53.12-1.18.19-2.21-1.97.88-2.53,2.38-3.21,3.71-2.06,4.05-5.01,7.39-8.33,10.43-.4.37-4.15,3.05-4.61,3.35,3.19-3.07,4.16-5.27,4.97-6.39,3.21-4.39,5.58-9.33,6.52-14.55.27-1.47-1.06-2.91-2.07-4.17-4.19-5.24-6.71-11.2-7.4-17.91-.04-.46-.28-.9-.54-1.7-3.08,2.48-5.9,5.05-9.03,7.16-3.3,2.22-6.8,4.19-10.39,5.92-3.41,1.65-7.04,2.85-10.71,4.31.18,1.23.22,2.18.47,3.07,3.17,11.29,9.04,21.06,16.86,29.74,1.42,1.57,2.82,1.57,4.7.88,8.97-3.28,15.34-9.59,20.5-17.34Z"/>
  <path class="cls-1" d="m21.12,104.94c-2.74,4.29-4.9,8.71-4.72,13.96,6.78,1.37,8.94,1.47,13.69.61.77-2.47-.49-3.96-1.62-5.5-2.08-2.82-4.16-5.63-6.27-8.43-.18-.22-.53-.32-1.08-.64Z"/>
  <path class="cls-1" d="m218.77,207.11c.37-.34.5-.94.7-1.45-.53.19-1.13.3-1.53.64-5.41,4.66-11.18,8.8-17.37,12.35-.45.26-.72.81-1.06,1.26.57-.05,1.19.01,1.65-.24,6.34-3.53,12.25-7.66,17.61-12.56Z"/>
  <path class="cls-1" d="m199.45,220.02s.05-.07.07-.1c-.05.01-.1.01-.14.01-.01.02-.02.04-.04.06.04.01.07.01.1.02h.01Z"/>
  <path class="cls-1" d="m70.55,68.96s.14.12.15.12l-.15-.12Z"/>
  <path class="cls-1" d="m219.53,205.53s-.03.09-.05.13c.04-.02.08-.03.13-.04h0s0-.01.01-.01h0c.03-.06.07-.11.09-.17-.06.03-.11.06-.18.09Z"/>
  <path class="cls-1" d="m248.09,158.69c-3.99,13.85-10.73,26.29-20.05,37.32-.7.83-1.24,1.81-1.85,2.72-2.47,1.93-4.95,3.85-6.46,6.7,2.8-1.35,4.26-2.76,6.7-6.45.62-.47,1.35-.85,1.85-1.43,14.71-17,22.9-36.79,24.78-59.12,1.38-16.37-1.42-32.18-7.75-47.34-4.86-11.63-11.74-21.97-20.46-31.07-.54-.57-.99-1.73-2.47-.96,1.13,1.24,2.2,2.39,3.24,3.57,20.57,23.22,29.11,50.26,25.53,81.05-.59,5.06-1.65,10.12-3.06,15.01Z"/>
  <path class="cls-1" d="m93.45,272.29c.06-1.59-.71-2.69-2.02-2.69-2.96,0-5.46,3.73-6.23,8.35,3.8.48,8.19-1.87,8.25-5.66Z"/>
  <polygon class="cls-1" points="160.84 267.46 164.39 267.17 165.57 245.12 165.45 245.13 160.84 267.46"/>
  <path class="cls-1" d="m276.36,214.44c-.72.42-1.53.9-2.34,1.36-8.9,5.01-18.42,8.08-28.63,8.86-14.66,1.11-29.33,2.16-44,3.23-5.26.38-10.52.75-15.78,1.14-10.52.79-21.03,1.61-31.55,2.4-6.54.49-13.08.92-19.61,1.41-11.32.85-22.63,1.72-33.94,2.58-6.06.46-12.11.92-18.17,1.37-11,.82-22,1.62-33,2.46-2.87.22-5.74.47-8.58.9-6.76,1.02-12.87,3.65-18.37,7.74-2.76,2.05-4.91,4.56-6.3,7.71-1.43,3.23-2.5,6.54-2.84,10.1-.44,4.61-1.11,9.2-1.69,13.8-1.35,10.79-2.71,21.57-4.02,32.36-.15,1.21-.02,2.45-.02,4.15,1.5-.74,2.62-1.24,3.7-1.83,7.94-4.34,16.33-7.31,25.4-8.07,5.1-.43,10.2-.68,15.3-1.05,10.84-.79,21.67-1.63,32.51-2.43,6.7-.49,13.4-.93,20.09-1.43,10.36-.78,20.71-1.64,31.07-2.39,11.32-.82,22.65-1.52,33.97-2.35,10.2-.74,20.39-1.68,30.59-2.34,13.24-.85,26.45-2.08,39.55-4.15,9.56-1.51,18.03-5.26,24.88-12.36,3.94-4.09,6.17-8.8,6.82-14.43,1.07-9.37,2.33-18.72,3.51-28.07.7-5.55,1.42-11.1,2.12-16.65.08-.63.16-1.28.12-1.91-.02-.7.47-1.6-.79-2.11Zm-137.52,32.46c1.78,0,3.08,1.52,3.08,3.59,0,3.04-2.37,6.28-4.86,6.28-1.96,0-3.08-1.59-3.08-3.66,0-3.25,2.31-6.21,4.86-6.21Zm-43.43,1.64l6.88.55-8.6,12.08h-4.45l6.17-12.63Zm-20.19,32.79c-1.83,3.22-5.27,8.42-8.14,10.79-3.34,2.75-7.12,4.19-11.51,3.8-4.2-.37-7.19-2.44-8.79-6.36-1.23-3-1.73-6.18-1.5-9.38.61-8.63,3.34-16.54,8.39-23.6,2.06-2.88,4.55-5.33,7.53-7.28,3.04-1.99,6.43-2.81,9.99-2.87,4.94-.08,8.53,2.91,9.53,7.74.5,2.39.41,4.75-.84,7.64-2.28.19-5.92.41-7.93.57.32-1.47.8-2.68.58-3.87-.59-3.19-2.82-4.65-5.95-3.66-1.19.38-2.38,1-3.33,1.81-1.33,1.12-2.62,2.39-3.58,3.82-4.14,6.12-6.2,12.92-6.07,20.31.03,1.56.38,3.19.93,4.65.97,2.53,3.34,3.58,5.87,2.59,1.29-.51,2.46-1.45,3.53-2.38,1.25-1.08,1.38-1.54,2.24-4.25h-5.51c.76-2.61,1.16-4.81,1.97-6.89,2.83-.2,12.92-1.42,16.12-1.24-.78,3.12,0,0-1.83,6.97q-1.08-.01-1.7,1.09Zm57.45,7.12c-3.15,0-4.7-1.58-5.19-4.25-2.51,3.57-5.57,6.44-8.76,6.44-3.56,0-5.4-2.55-5.4-6.07,0-5.31,4.39-11.18,4.39-14.43,0-1.1-.36-1.86-1.42-1.86-4.74,0-9.43,14.08-11.21,21.67h-6.17c.08-.26.15-.52.23-.79-2.44,2.09-5.55,3.42-9.79,3.42-5.87,0-10.44-3.87-10.44-11.04,0-9.04,5.22-17.67,12.93-17.67,4.68,0,7.17,4,7.17,8.14,0,8.21-7.95,11.87-13.93,10.28.42,2.76,2.13,4.42,5.57,4.42,5.26,0,8.63-2.96,12.39-10.94,1.28-4.39,2.56-8.77,3.87-13.16h5.99l-1.66,5.66c2.13-4.21,5.34-6.35,8.24-6.35s4.8,2.28,4.8,5.66c.12,5.11-4.68,12.01-4.68,14.98,0,.9.47,1.45,1.25,1.45,1.94,0,4.85-3.86,7.49-9.27,1-4.29,2.59-9.23,4.2-14.32h6.17c-3.74,11.73-7.35,21.4-4.15,21.4,1.48,0,4.27-3.24,6.23-6.7l3.32,3.87c-1.84,3.8-6.52,9.46-11.44,9.46Zm31.72-1.87l.4-12.16-5.32.47-3.12,12.4-8.27.73,13.34-50.51,13.47-1.19-.76,49.4-9.74.86Zm35.19-2.42l-20.47,1.37,7.24-49.74,9.83-.66-6.14,42.2,10.65-.71-1.11,7.54Zm30.16-44.15l-10.52.85-1.43,10.92,10.17-.83-.99,7.56-10.17.83-2.13,16.24,10.52-.85-.99,7.56-20.33,1.65,6.54-49.83,20.33-1.65-1,7.55Z"/>
</svg>