<?xml version="1.0" encoding="UTF-8"?>
<svg id="Calque_1" data-name="Calque 1" xmlns="http://www.w3.org/2000/svg" viewBox="0 0 271.97 271.27">
  <defs>
    <style>
      .cls-1 {
        fill: #ad1f31;
        stroke-width: 0px;
      }
    </style>
  </defs>
  <path class="cls-1" d="m0,129.76c0,3.03.4,6.05.49,9.08.26,8.02,1.37,15.94,3.29,23.7,10.76,43.44,36.19,75.27,76.29,95.05,21.17,10.44,43.75,14.69,67.4,13.49,16.47-.83,32.25-4.39,47.43-10.72,1.59-.66,3.13-1.46,4.48-2.1.09-.73.24-1.09.14-1.34-3.68-9.02-7.38-18.02-11.11-27.02-.23-.56-.7-1.02-1.22-1.75-1.37.54-2.71,1-4,1.57-19.87,8.69-40.5,11.35-61.87,7.62-25.02-4.37-46-16.16-62.7-35.24-18.97-21.68-27.57-47.16-26.71-75.9.03-.89-.08-1.78-.12-2.61-4.24-.6-25.59-.67-31.12-.07-.23,2.16-.67,4.2-.67,6.24Zm160.54,129.32c1.72-1.01,11.42-2.77,17.52-3.2-3.54,2.01-13.21,4.01-17.55,3.64,0-.15-.05-.4.03-.44Zm-39.95-1.2c9.63,2.07,19.4,1.11,29.11,1.36,1.68.04,3.44-.4,5.22.51-.38.49-.64,1.14-.92,1.15-5.57.17-11.15.43-16.72.31-4.45-.09-8.89-.7-13.34-1-1.72-.12-3.31-.52-4.78-1.17.11-1.25.9-1.27,1.43-1.16Zm-85.09-50.54c4.56,6.19,9.75,11.78,15.38,17.01,10.88,10.09,23.18,17.96,36.76,23.84,7.76,3.36,15.75,6.1,24.07,7.75.62.12,1.29.24,1.82.56.31.19.56.83.47,1.18-.07.3-.65.66-1.02.67-.78.04-1.6-.05-2.36-.23-16.72-4.08-32.38-10.57-46.63-20.38-10.74-7.38-20.24-16.03-28.33-26.24-.99-1.25-2.01-2.49-2.83-3.85-.33-.54-.17-1.39-.23-2.09,1.73-.2,2.27.93,2.9,1.78Zm-16.71-29.87c3.23,8.54,7.31,16.64,12.33,24.27.44.68.83,1.38.09,2.12-4.78-4.39-13.27-21.13-13.82-27.64.65.57,1.24.83,1.4,1.25Zm-8.52-37.7c1.53,1.7,1.7,3.23,1.75,4.7.31,8.49,1.91,16.75,4.11,24.93.19.71.15,1.48.23,2.33-1.76-.34-1.75-1.67-1.99-2.63-2.4-9.41-4.4-18.88-4.1-29.33Z"/>
  <path class="cls-1" d="m271.83,125.29c-1.09-24.74-8.74-47.28-22.46-67.83-9.8-14.67-28.42-32.44-38.7-36.79-3.76,5.19-7.78,10.28-11.15,15.59.23.51.26.7.37.78,1.02.77,2.03,1.54,3.08,2.26,10.62,7.34,19.84,16.14,27.34,26.67,16.75,23.53,23.59,49.67,20.32,78.4-2.04,17.98-8.27,34.43-18.48,49.34-9.54,13.92-21.45,25.33-36.16,33.73-1.35.77-2.98,1.24-3.85,2.93,2.38,5.99,4.7,12.08,7.53,18.29,37.38-18.02,74.85-62.57,72.16-123.37Zm-75.5,106.01c.71-.62,1.61-1.02,2.44-1.49,22.25-12.74,38.51-30.86,48.72-54.37,4.23-9.72,6.95-19.88,8.13-30.44,2.44-21.77-.48-42.7-9.96-62.56-8.51-17.82-20.82-32.48-36.9-43.96-1.53-1.1-3.29-1.94-4.63-3.71.41-.64.8-1.26,1.17-1.84,8.76,3.45,24.76,18.47,34,31.93,12.91,18.8,19.82,39.64,20.5,62.41,1.54,51.54-29.57,90.6-62.88,107-1.39-1.03-1.7-2-.59-2.97Z"/>
  <path class="cls-1" d="m74.71,23.81c-.87,3.35-1.15,6.85-1.77,10.77,7.15-.93,11.94-4.08,14.53-9.95,2.04-4.64,3.6-9.49,5.35-14.25.04-.11-.07-.27-.12-.41-.29-.11-.59-.33-.87-.3-8.89.73-14.89,5.57-17.12,14.14Z"/>
  <path class="cls-1" d="m103.84,4.64c-3.23.82-5.8,2.67-7.65,5.42-.98,1.45-1.9,2.98-2.55,4.6-1.3,3.24-2.4,6.57-3.58,9.84,1.8,1.07,3.29.13,4.77-.28,4.72-1.31,9.07-3.33,11.81-7.62,2.55-3.98,4.86-8.11,7.42-12.42-3.72-1.03-6.99-.36-10.22.46Z"/>
  <path class="cls-1" d="m20.93,83.63c.92,3.47,4.4,9.74,7.3,13.18,4.07-4.95,5.77-11.52,4.07-17.35-1.37-4.71-3.16-9.31-4.9-14.34-5.92,4.85-8.26,11.77-6.47,18.51Z"/>
  <path class="cls-1" d="m109.27,17.94c3.52,1.02,6.55-.32,9.65-.9,3.26-.61,5.82-2.3,7.8-5.07,2.31-3.24,4.94-6.26,7.4-9.39.44-.56.74-1.22,1.17-1.93-12.27-2.83-22.18,3.74-26.02,17.29Z"/>
  <path class="cls-1" d="m152.63,7.4c-2.11,2.17-4.25,4.3-6.32,6.51-.47.5-.68,1.23-1,1.84,2.09,1.75,4.37,2.05,6.55,2.19,3.35.21,6.6-.21,9.45-2.46,2.87-2.27,5.97-4.24,9.01-6.29,1.28-.86,2.66-1.57,4.24-2.5-2.07-1.7-4.2-2.23-6.25-2.96-6.04-2.16-11.24-.91-15.68,3.67Z"/>
  <path class="cls-1" d="m30.32,62.68c-.01,5.38,2.4,10.07,4.45,15.41,4.35-4.34,6.86-8.98,7.56-14.57.22-1.74-1.54-13.8-2.38-16.62-6.29,3.72-9.62,8.77-9.63,15.78Z"/>
  <path class="cls-1" d="m53.8,51.72c.83-1.67,1.52-3.59,1.61-5.42.23-4.58.07-9.18.07-14.21-4.29,1.92-7.36,4.09-9.36,6.61-1.39,1.76-2.6,3.65-2.99,5.91-.95,5.45.41,10.64,1.62,16.27,1.04-.5,1.78-.71,2.35-1.15,2.81-2.18,5.12-4.84,6.7-8.01Z"/>
  <path class="cls-1" d="m134.32,5.31c-2.9,2.85-4.81,6.29-6.85,9.89,2.63,1.69,5.33,1.16,7.99,1.15,3.56-.03,6.52-1.36,9.04-3.79.92-.89,1.79-1.82,2.69-2.73,2.02-2.04,4.06-4.06,6.07-6.12.4-.41.68-.93,1.25-1.72-1.54-.47-2.72-.9-3.92-1.19-6.24-1.48-11.64-.04-16.27,4.51Z"/>
  <path class="cls-1" d="m171.32,11.51c-3.4,1.83-5.93,4.7-9.83,7.35,6.86,3.56,12.93,4.98,19.37,1.54,3.08-1.64,6.19-3.24,9.27-4.89.81-.43,1.7-.88,1.63-2.05-6.16-4.81-13.84-5.51-20.44-1.95Z"/>
  <path class="cls-1" d="m57.81,33.06c-.89,4.24-.49,8.45-.01,13.19,1.64-.84,2.95-1.35,4.09-2.11,4.09-2.74,7.32-6.32,8.59-11.12,1.09-4.12,1.53-8.41,2.42-13.57-2.26.79-3.92,1.28-5.52,1.93-5.31,2.14-8.41,6.13-9.57,11.68Z"/>
  <path class="cls-1" d="m17.03,85.78c-1.8,3.06-2.66,6.41-3.26,9.89-.57,3.31.03,6.27,1.57,9.19,1.81,3.42,4.56,6.07,7.31,9.29,2.04-2.23,2.33-4.66,3.14-6.85,1.36-3.66.97-7.16-.87-10.57-2.18-4.02-4.31-8.08-6.59-12.37-.51.54-1,.92-1.3,1.42Z"/>
  <path class="cls-1" d="m218.56,196.02c-.19.22-.36.46-.53.7-1.79,1.94-6.03,5.98-8.83,9.07-.14.04-.27.09-.38.17-4.58,3.39-9.14,6.83-13.69,10.27l-6.07,3.13s.05-.02.11-.05c-2.69,1.35-5.38,2.71-8.05,4.09-.1.05-.2.12-.3.18-.05.01-.1.01-.15.03-4.39,1.29-8.77,2.62-13.13,3.98-.51.16-.91.63-1.36.96,5.55-.69,10.85-2,15.85-4.35.02-.01.04-.03.06-.05,4.32-1.59,8.35-3.76,12.24-6.23.2-.13,1.39-.66,1.7-.96-.01-.01.01-.03.08-.08,4.33-3.05,9.32-6.13,14.81-11.32.01-.01,0-.01.01-.01,3.31-2.62,7.27-6.79,8.51-8.73,0,0-.32.39-.34.37,0,0-.01,0-.01-.01.12-.12.24-.23.35-.36,17.69-21.19,26.01-45.5,24.36-73.14-.75-12.59-3.87-24.6-9.13-36.03-4.79-10.39-11.16-19.75-19.16-27.96-.55-.56-1-1.62-2.17-1.17.03.25,0,.45.08.55.5.62.99,1.23,1.54,1.81,14.1,14.96,22.92,32.53,26.42,52.81,2.63,15.25,1.62,30.3-2.64,45.09-3.97,13.86-10.83,26.25-20.18,37.24Z"/>
  <path class="cls-1" d="m181.27,24.52c.45.5.86,1.17,1.45,1.59,4.81,3.4,10.1,3.5,15.55,2.06.57-.15,1.16-.59,1.52-1.07,1.91-2.53,3.75-5.11,5.95-8.13-1.12-.64-1.63-1.12-2.21-1.22-3.98-.72-7.99-.86-11.75.81-3.34,1.48-6.54,3.29-9.79,4.98-.25.12-.37.48-.72.98Z"/>
  <path class="cls-1" d="m41.07,146.53c1.42,8.37,3.68,16.48,7.09,24.26.31.71,4.5,10.12,5.99,11.7,4.67,8.06,10.5,15.2,17.17,21.68.65.63,2.27,2.18,3.06,2.67h0c4.21,3.91,8.77,7.39,13.8,10.21,4.11,2.08,11.21,5.97,15.37,7.94.64.3,1.38.37,2.08.55-.36-.8-.83-1.25-1.39-1.53-3.83-1.92-11.46-5.56-23.21-13.26-.15-.1-.3-.22-.45-.33.12.09.22.16.3.23-.45-.3-.9-.59-1.36-.89l-1.63-1.38c.08.06.17.13.25.19-.17-.14-.34-.27-.52-.42l-.25-.21c-8.68-7.33-18.92-20.32-23.39-28.09-.07-.12-.47-.94-1-2.05-1.88-4.67-4.9-10.92-5.47-12.5-5.56-15.39-7.63-30.68-5.61-47,2.23-17.98,8.75-34.13,19.55-48.62.74-1,1.28-2.15,1.91-3.22,1.06-.17,1.25-.83,1.21-2.85-.8,1.5-1.11,2.08-1.42,2.65-1.08,1.13-2.36,2.13-3.2,3.41-2.89,4.39-5.88,8.75-8.37,13.37-6.75,12.52-10.6,25.95-11.43,40.15-.48,7.79-.4,15.59.92,23.34Z"/>
  <path class="cls-1" d="m7.24,118.85c4.64.71,8.96,1.6,13.65.45-.13-3.52-.14-3.51-1.73-5.61-1.82-2.4-3.62-4.82-5.43-7.23-.44-.58-.93-1.13-1.61-1.96-3.15,4.56-5.18,8.99-4.88,14.35Z"/>
  <path class="cls-1" d="m78.12,208.57c.83.68,1.65,1.3,2.44,1.85-.56-.42-1.47-1.12-2.44-1.85Z"/>
  <path class="cls-1" d="m196.12,216.88s-.05.05-.08.08c.03.04.44-.14.08-.08Z"/>
  <path class="cls-1" d="m72.3,120.06c2.15,1.6,4.7,1.99,7.15,2.56,7.25,1.71,14.59,1.44,21.95,1.07,5.12-.26,10.12-.9,15-3.17,1.26,5.7,3.64,10.69,7.06,15.22,4.22,5.59,9.28,10.09,15.71,13,1.41.64,2.66.71,4.13.16,6.59-2.5,12.11-6.42,16.41-12.03,3.44-4.49,6.06-9.38,7.46-15.16.98.77,1.71,1.59,2.63,1.99,1.15.51,2.46.67,3.7,1,8.46,2.24,17.07,2.57,25.7,1.68,3.29-.34,6.51-1.53,9.71-2.48,1.01-.3,1.87-1.09,2.99-1.78-1.49-3.23-2.8-6.32-4.29-9.31-6.32-12.64-16.42-20.57-30.15-23.88-1.7-.41-3.44-.68-5.18-.91-1.67-.22-3.02.33-4.34,1.51-1.77,1.59-3.79,2.89-5.76,4.24-.43.29-1.11.67-1.35.3,1.39-1.64,2.73-3.21,4.05-4.79,1.42-1.69,2.92-3.35,3.75-5.91-6.77.24-12.66,2.45-18.59,5.06-6.82-4.77-14.22-7.06-22.48-5.79-.06.46-.21.81-.12,1.07,1.34,3.85,3.36,7.22,6.78,9.62.55.39.98.95,1.46,1.45-.56-.06-1.15-.06-1.64-.27-3.82-1.62-6.88-4.19-8.53-8.01-1.09-2.53-2.81-3.29-5.28-3.03-4.79.51-9.49,1.34-13.88,3.46-5.06,2.44-9.9,5.21-14.25,8.79-7.85,6.47-14.53,13.92-19.5,22.85-.21.38-.19.9-.3,1.49Zm134.12-2.35c-2.72-1.91-3.64-4.11-5-5.91-1.54-2.02-2.91-4.17-4.48-6.17-1.47-1.87-3.04-3.67-4.69-5.38-1.57-1.63-3.3-3.12-4.72-4.89,9.55,4.25,14.83,12.14,18.89,22.35Zm-48.33,6.61c.71-4.52,1.19-9.08,1.89-14.55,3.59,3.49,5.04,6.62,3.89,10.85-1.66,6.1-4.25,11.65-8.62,16.28-.38.4-.89.69-1.55.88,2.01-4.36,3.65-8.78,4.39-13.46Zm-58.67-4.22c1.8-.62,3.63-1.13,5.46-1.66,3.84-1.1,6.78-3.31,8.65-6.88.35-.68,1.56-2.23,1.97-2.88.25.05-.26,1.04-.02,1.09,0,1.74-.05,3.48.01,5.22.09,2.43-1.18,3.9-3.31,4.67-1.48.54-3.04.89-4.59,1.21-3.12.64-9.41.93-12.61.68,2.37-.91,3.85-1.25,4.44-1.45Z"/>
  <path class="cls-1" d="m109.46,129.87c.06-1.01-.3-2.04-.46-2.98-.68-.05-1-.13-1.31-.09-7.97,1.09-15.92,1.2-23.89-.11-1.7-.28-3.45-.81-5.16-.09-7.88,11.48-9.11,31.57-5.28,42.46,1.35.73,2.77.46,4.17.15,1.25-.28,2.49-.6,3.72-.95,1.38-.39,2.76-.8,4.12-1.25,1.37-.45,2.72-.94,4.07-1.45,1.34-.51,2.68-1.06,4-1.62,1.17-.5,2.37-.97,3.48-1.58,1.26-.68,2.48-1.46,3.67-2.27s2.34-1.68,3.44-2.6,2.15-1.92,3.17-2.93c.91-.9,1.77-1.85,2.61-2.81.94-1.09,1.82-2.23,2.76-3.32.87-1.02,1.4-2.4,3.17-3.4,0,2.09-.01,3.63,0,5.17.03,4.34.46,8.64,2.15,12.67,1.11,2.65,2.43,5.23,3.9,7.7,4.05,6.79,9.73,11.79,16.96,15.01,2.06.92,3.94.83,5.86-.51,5.57-3.88,10.18-8.72,14.29-14.06.77-1,1.33-2.18,1.92-3.31,3.65-6.91,5.44-14.3,5.84-22.07.04-.7.41-1.47-.1-4.91.36.41,1.84,3.61,2.15,4.11,2.9,4.66,6.6,8.65,10.52,12.42,7.97,7.62,17.25,12.11,28.53,11.5.76-.04,1.51-.23,2.37-.38.86-2.96,1.25-5.77,1.26-8.65.03-8.9-1.64-17.47-5-25.71-.54-1.32-1.14-2.67-1.96-3.82-.76-1.07-1.82-1.18-2.79.25,2.98,8.95,5.37,18.13,5.51,27.76-.55-.8-.91-1.65-1.11-2.54-1.59-7.03-3.46-13.97-6.57-20.51-.81-1.71-1.45-3.55-3.19-4.93-9.19.28-18.33-1.13-27.28-2.75-3.14,4.55-5.37,9.02-4.38,14.48.23,1.24.06,2.55.02,3.83-.28,7.64-2.27,14.82-5.81,21.58-.29.55-.85.96-1.98,2.2,1.75-7.14,2.16-13.28,1.02-19.66-1.54-.86-3.05-1.69-4.43-2.46-3.45,1.67-6.61,3.18-9.77,4.71-1.55.75-3.08.76-4.6-.03-7.72-4.05-14.79-8.92-19.92-16.17-.42-.6-.7-1.51-1.88-1.21-1.05,2.42-1.92,5.01-3.25,7.34-1.33,2.35-2.97,4.57-4.75,6.61-1.77,2.04-3.8,3.89-5.86,5.65-3.33,2.84-3.76,2.99-6.88,3.78,1.02-1.1,1.89-2.01,2.73-2.95,6.42-7.22,9.66-15.72,10.2-25.3Z"/>
  <path class="cls-1" d="m81.52,81.75c-.45,2.62-.58,5.35.06,8.36,1.07-.33,2.06-.4,2.76-.89,5.08-3.52,10.86-5.32,16.67-7.13,6.25-1.94,12.51-3.9,18.64-6.21,4.32-1.63,8.66-3.46,12.56-5.9,7.02-4.39,11.72-10.38,10.61-19.38-.07-.57-.25-1.28.85-1.8,3.38.66,5.59,3.02,6.76,6.32,1.25,3.54,1.28,7.22.43,10.88-.84,3.61-2.31,6.96-4.15,10.17-1.09,1.91-2.32,3.79-2.85,6.01,1.52,1.77,3.56,2.37,5.39,3.26,1.86.91,3.15.23,3.34-1.83.36-4.02,1.98-7.48,4.29-10.68-.05.67-.05,1.35-.23,1.98-.7,2.45-1.52,4.87-2.2,7.33-.13.47.16,1.06.31,1.9,1.79-1,1.94-2.46,2.28-3.81,1.61-6.41,4.13-12.42,7.96-17.84,1.2-1.7,2.39-3.41,3.69-5.02,1.31-1.62,1.26-3.21.19-4.85-.78-1.19-1.58-2.4-3.35-2.68-1.68,1.31-3.39,2.65-5.28,4.13-.86-.91-1.45-1.65-2.15-2.25-1.58-1.33-3.06-2.93-4.88-3.81-3.15-1.51-6.5-2.63-9.82-3.78-2.4-.83-4.92-1.32-7.32-2.15-6.53-2.26-12.85-1.71-19.13.97-8.82,3.77-15.49,10.02-20.91,17.76-.59.84-1.18,1.68-1.77,2.52,1.48-6.57,5.18-11.89,9.33-16.96-.64-1.13-1.19-2.08-1.92-3.36,1.93.09,3.65.17,5.59.26,1.72-1.45,4.6-1.91,5.1-5.08,2.11.92,3.98-.12,5.9-.75,1.9-.62,4.02-.33,6.52-1.35-2.01-1.07-3.53-1.22-5.08-1.29-6.42-.28-12.4,1.42-17.89,4.55-4.77,2.71-8.82,6.39-11.6,11.2-2.24,3.88-4.15,7.96-5.07,12.38-1.3,6.25-2.56,12.52-3.63,18.82Zm42.06-30.94c1.57.05,3.14.23,4.71.4,1.38.14,2.75.33,4.15.5,1.12-2.95-1.51-3.95-2.78-5.92,3.3-.19,5.71.85,7.82,2.62,1.69,1.42,2.59,3.32,2.15,5.51-.4,2-.94,4.04-1.81,5.87-1.48,3.13-3.98,5.4-7.01,6.84-.4-2.02-.57-4.07-1.25-5.94-.64-1.75-1.6-3.49-2.82-4.89-1.33-1.52-3.12-2.63-5.08-4.22.9-.39,1.42-.79,1.92-.77Zm-2.44,15.61c-.35-1.97-.85-3.92-1.32-6.06,4.12,2.26,5.78,4.69,6.53,9.36-2.94,2.31-3.49,2.53-7.35,2.88.76-2.11,2.55-3.83,2.14-6.18Zm-25.17,7.37c2.46.82,3.61,2.8,4.76,5.04-1.84,1.91-4.24,1.74-6.76,2.57.78-2.95,1.37-5.21,2-7.61Z"/>
  <path class="cls-1" d="m196.98,171.1l.3.03c-.08-.07-.18-.09-.3-.03Z"/>
  <path class="cls-1" d="m188.68,195.15c2.85-8.1,3.63-16.47,3.16-24.99-.02-.3-.22-.59-.34-.9-2.58-1.55-5.27-2.97-7.73-4.7-2.6-1.83-5.09-3.85-7.43-6-2.2-2.02-4.15-4.33-6.8-7.13-.82,5.54-1.47,10.48-3.93,14.75-2.53,4.4-5.49,8.56-8.34,12.96,5.28,12.83,16.71,24.53,26.98,26.96.35-.25.78-.48,1.11-.81,8.31-8.11,14.31-21.67,16.36-32.92.17-.93.02.19,0-.77l-4.44-.47c.51.49.23,3.46.08,4.13-.6,2.64-1.12,5.31-1.84,7.92-1.18,4.33-3.07,8.38-5.39,12.22-.51.84-7.31,10.7-1.97.49.18-.25.43-.47.52-.74Z"/>
  <path class="cls-1" d="m139.96,218.33c1.44.5,2.8.4,4.18-.23,4.66-2.09,9.44-3.93,13.95-6.31,2.93-1.55,5.52-3.78,8.15-5.85,1.1-.87,1.98-2.07,2.8-3.23.54-.76.31-1.51-.73-1.73-2.95,2.45-5.76,5.04-8.83,7.29-4.51,3.3-6.56,4.11-10.15,4.68,5.45-5.27,11.47-9.87,14.45-16.87-3.17-4.76-6.17-9.27-9.37-14.09-2.43,1.9-4.65,3.46-6.67,5.24-3.76,3.31-7.71,3.41-11.91,1.03-.97-.55-1.94-1.11-2.9-1.67-1.08-.63-2.16-1.26-3.16-1.84-.44.3-.8.42-.94.67-3.11,5.85-7.4,10.77-12.02,15.44-.53.54-.9,1.24-1.32,1.84.39.56.61,1,.94,1.34,6.63,6.75,14.65,11.22,23.53,14.29Z"/>
  <path class="cls-1" d="m98.86,204.67c1.42,1.57,2.82,1.57,4.7.88,8.97-3.28,15.34-9.59,20.5-17.34.87-1.32,1.47-2.83,2.08-4.3.22-.53.12-1.18.19-2.21-1.97.88-2.53,2.38-3.21,3.71-2.06,4.05-5.01,7.39-8.33,10.43-.4.37-4.15,3.05-4.61,3.35,3.19-3.07,4.16-5.27,4.97-6.39,3.21-4.39,5.58-9.33,6.52-14.55.27-1.47-1.06-2.91-2.07-4.17-4.19-5.24-6.71-11.2-7.4-17.91-.04-.46-.28-.9-.54-1.7-3.08,2.48-5.9,5.05-9.03,7.16-3.3,2.22-6.8,4.19-10.39,5.92-3.41,1.65-7.04,2.85-10.71,4.31.18,1.23.22,2.18.47,3.07,3.17,11.29,9.04,21.06,16.86,29.74Z"/>
</svg>